<svg width="34" height="35" viewBox="0 0 34 35" fill="none" xmlns="http://www.w3.org/2000/svg">
<mask id="mask0_250_2674" style="mask-type:luminance" maskUnits="userSpaceOnUse" x="0" y="0" width="34" height="35">
<path d="M34.0014 0H0.0234375V34.0266H34.0014V0Z" fill="white"/>
</mask>
<g mask="url(#mask0_250_2674)">
<path d="M33.9889 19.9828C33.9889 18.9934 33.9889 18.0034 33.9889 17.0128C33.9889 15.6158 33.9889 14.2195 33.9889 12.8237C33.9889 11.3534 33.9811 9.8825 33.9655 8.41101C33.9853 8.15313 33.9493 7.89706 33.9457 7.63919C33.9115 6.29077 33.5619 4.96911 32.925 3.78011C32.0778 2.26139 30.6887 1.11829 29.0353 0.579239C28.2295 0.308686 27.3915 0.146174 26.5431 0.0959526H26.5142L26.4764 -0.00683594L26.498 0.0905427C26.1654 0.0577141 25.8307 0.0516836 25.4972 0.0725096C24.9111 0.0148038 24.3196 0.0346401 23.7299 0.0328368H9.32691C8.78592 0.0328368 8.26296 0.0707063 7.72918 0.0833295C6.10432 0.0992835 4.51893 0.585987 3.16501 1.4845C2.14407 2.19631 1.33366 3.16992 0.818906 4.30307C0.377599 5.31211 0.128095 6.39452 0.0831565 7.49492C0.0831565 7.77624 0.0344672 8.05756 0.0543036 8.33887C0.00741762 10.3478 0.0434838 12.3584 0.0290573 14.3673C0.0206419 16.1995 0.0164342 18.031 0.0164342 19.862C0.0164342 21.283 0.0164342 22.7028 0.0164342 24.1214C-0.00642408 25.2664 0.0538445 26.4115 0.196765 27.5477C0.310593 28.4989 0.611513 29.4182 1.08219 30.2527C1.09998 30.2868 1.12311 30.3178 1.15071 30.3446C1.63154 31.1816 2.27889 31.9111 3.05275 32.488C3.82661 33.0649 4.71056 33.477 5.64997 33.6988C6.69345 33.8932 7.75163 33.9982 8.81297 34.0126C10.6902 34.0252 12.5873 34.0126 14.4645 34.0216C14.4645 34.0216 19.6941 33.9765 19.6941 34.0216C20.6427 34.045 21.593 34.0216 22.5434 34.0324C24.2985 34.0977 26.0561 34.0253 27.8 33.816C28.9737 33.6379 30.0839 33.1682 31.0291 32.4499C31.9742 31.7316 32.7241 30.7876 33.2099 29.7045C33.7486 28.3815 34.0077 26.9614 33.9709 25.5334C33.9944 23.6868 33.9799 21.842 33.9799 19.9955" fill="white"/>
</g>
<mask id="mask1_250_2674" style="mask-type:luminance" maskUnits="userSpaceOnUse" x="0" y="0" width="34" height="35">
<path d="M26.4863 0.0991819C26.1546 0.063288 25.8205 0.054242 25.4873 0.0721323C25.0284 0.0357487 24.568 0.0225077 24.1078 0.0324595H9.32064C8.77964 0.0324595 8.25668 0.070329 7.72471 0.0829521C6.0972 0.0980483 4.5091 0.585442 3.15332 1.48593C2.13293 2.19784 1.32313 3.17147 0.809024 4.3045C0.367597 5.31349 0.118087 6.39593 0.073275 7.49635C0.073275 7.77767 0.0245857 8.05898 0.0444221 8.3403C0.00474934 10.3474 0.031799 12.3581 0.0173725 14.367C0.00895706 15.9274 0.00474934 17.4873 0.00474934 19.0465V19.4072C0.00474934 19.5587 0.00474934 19.7102 0.00474934 19.8616C0.00474934 21.2874 0.00474934 22.7073 0.00474934 24.121C-0.0182042 25.266 0.0420648 26.4111 0.18508 27.5473C0.299001 28.4985 0.599916 29.4178 1.0705 30.2523C1.08829 30.2864 1.11143 30.3175 1.13903 30.3443C1.62004 31.1809 2.26747 31.91 3.04132 32.4866C3.81518 33.0632 4.69903 33.475 5.63828 33.6966C6.68176 33.8911 7.73994 33.9961 8.80128 34.0104C9.67949 34.0104 10.5631 34.0104 11.4467 34.0104C12.4512 34.0104 13.4556 34.0104 14.4528 34.0104L14.4709 33.9923L14.4871 33.9653L14.4997 33.8896C14.4997 33.6497 14.4997 31.8897 14.4997 29.7708C14.4997 28.6095 14.4997 27.3417 14.4997 26.1642C14.4997 24.2924 14.4997 22.6099 14.5124 21.9084C14.3101 21.8674 14.1029 21.8564 13.8974 21.8759C13.3564 21.8759 12.8154 21.8759 12.2745 21.8759C11.5423 21.8759 10.8102 21.8759 10.0708 21.894C10.0853 21.7205 10.0853 21.5462 10.0708 21.3728C10.0708 20.6106 10.0708 19.8484 10.0708 19.0862C10.0708 18.3997 10.0708 17.7133 10.0708 17.0268H11.7262C12.6279 17.0268 13.5097 17.0268 14.415 17.0268C14.4312 15.7645 14.4474 14.5022 14.451 13.2399C14.444 12.4658 14.541 11.6943 14.7396 10.9461C14.9364 10.1975 15.277 9.49444 15.7422 8.87588C16.0046 8.53143 16.3073 8.21965 16.6439 7.94718C17.0636 7.62462 17.5237 7.35847 18.0126 7.15552C19.0826 6.76406 20.2227 6.60127 21.3595 6.67765C22.4734 6.68995 23.5854 6.77428 24.6884 6.93011C24.6884 8.30784 24.5892 9.77212 24.5784 11.1517C23.7489 11.1769 22.8581 11.1985 22.0285 11.2436C21.6747 11.2376 21.3241 11.3126 21.0038 11.4629C20.6834 11.6133 20.4016 11.835 20.1802 12.111C19.8351 12.6162 19.6595 13.2181 19.6788 13.8296C19.6788 14.8953 19.6788 15.9593 19.6788 17.0232C20.7229 17.0232 21.7941 17.0232 22.8563 17.0232H24.6163C24.5892 17.1837 24.4197 18.0024 24.2268 18.9383C23.9905 20.0852 23.7182 21.4107 23.6335 21.9156H19.686V21.9318C19.686 22.9273 19.686 23.9227 19.686 24.9181C19.686 26.1756 19.686 27.4331 19.686 28.6906C19.686 30.411 19.686 32.1319 19.686 33.8535C19.686 33.8896 19.686 33.9617 19.686 33.9978C20.2865 34.0122 20.8852 34.0104 21.4894 34.0086C21.8392 34.0086 22.189 34.0086 22.5389 34.0086C22.8887 34.0086 23.244 34.0086 23.5974 34.0086C25.0004 34.0529 26.4047 33.9799 27.7955 33.7904C28.9692 33.6123 30.0795 33.1426 31.0246 32.4243C31.9698 31.7059 32.7196 30.762 33.2054 29.6788C33.7439 28.3558 34.003 26.9357 33.9664 25.5078C33.9773 24.6855 33.9809 23.8614 33.9809 23.0391V22.92C33.9809 21.9408 33.9809 20.9616 33.9809 19.9825C33.9809 19.0033 33.9809 17.9988 33.9809 17.0124C33.9809 15.6154 33.9809 14.2191 33.9809 12.8233C33.9809 11.3518 33.973 9.88092 33.9574 8.41063C33.9773 8.15275 33.9412 7.89668 33.9376 7.63881C33.9044 6.28853 33.5548 4.96487 32.9169 3.77432C32.0678 2.25695 30.6774 1.1158 29.0236 0.578862C28.2178 0.308616 27.3798 0.146112 26.5314 0.0955753H26.5026L26.4665 0L26.4863 0.0991819Z" fill="white"/>
</mask>
<g mask="url(#mask1_250_2674)">
<path d="M33.9752 -0.538523L-0.542969 0.00915527L0.00539604 34.5706L34.5236 34.0229L33.9752 -0.538523Z" fill="url(#paint0_linear_250_2674)"/>
</g>
<defs>
<linearGradient id="paint0_linear_250_2674" x1="0.277154" y1="34.2897" x2="0.346191" y2="34.2886" gradientUnits="userSpaceOnUse">
<stop stop-color="#4FA8F7"/>
<stop offset="0.103" stop-color="#25A7F8"/>
<stop offset="0.206" stop-color="#249EF4"/>
<stop offset="0.315" stop-color="#2095F2"/>
<stop offset="0.43" stop-color="#1E8DEE"/>
<stop offset="0.564" stop-color="#1C86EA"/>
<stop offset="0.673" stop-color="#177BE7"/>
<stop offset="0.897" stop-color="#2A64DA"/>
<stop offset="0.988" stop-color="#185BB0"/>
<stop offset="1" stop-color="#185BB0"/>
</linearGradient>
</defs>
</svg>
