<svg width="34" height="35" viewBox="0 0 34 35" fill="none" xmlns="http://www.w3.org/2000/svg">
<path d="M34 17.8977C34 16.6568 33.8896 15.4636 33.6846 14.3182H17.3469V21.0955H26.6827C26.2727 23.275 25.0427 25.1205 23.1976 26.3614V30.7682H28.8275C32.1076 27.7136 34 23.2273 34 17.8977Z" fill="#4285F4"/>
<path d="M17.3469 35C22.0306 35 25.9573 33.4409 28.8275 30.7682L23.1976 26.3614C21.6521 27.4114 19.6809 28.0477 17.3469 28.0477C12.8367 28.0477 9.00464 24.9773 7.63265 20.8409H1.86085V25.3591C4.71521 31.0705 10.5659 35 17.3469 35Z" fill="#34A853"/>
<path d="M7.63265 20.825C7.28571 19.775 7.0807 18.6614 7.0807 17.5C7.0807 16.3386 7.28571 15.225 7.63265 14.175V9.65682H1.86085C0.678108 12.0114 0 14.6682 0 17.5C0 20.3318 0.678108 22.9886 1.86085 25.3432L6.35529 21.8114L7.63265 20.825Z" fill="#FBBC05"/>
<path d="M17.3469 6.96818C19.9017 6.96818 22.1725 7.85909 23.9861 9.57727L28.9536 4.56591C25.9416 1.73409 22.0306 0 17.3469 0C10.5659 0 4.71521 3.92955 1.86085 9.65682L7.63265 14.175C9.00464 10.0386 12.8367 6.96818 17.3469 6.96818Z" fill="#EA4335"/>
</svg>
