<svg width="69" height="69" viewBox="0 0 69 69" fill="none" xmlns="http://www.w3.org/2000/svg">
<path d="M31.0889 44.0714H37.9111C41.0827 44.0714 43.6649 46.6548 43.665 49.8243V62.6525C43.665 62.6792 43.6613 62.702 43.6602 62.7218C43.512 62.6988 43.3576 62.653 43.0908 62.5919C42.8454 62.5357 42.5472 62.4796 42.2236 62.4796C41.9004 62.4796 41.6027 62.5359 41.3574 62.5919C41.0897 62.653 40.9348 62.698 40.7861 62.7208C40.785 62.7013 40.7832 62.6787 40.7832 62.6525V49.8243C40.7831 48.2419 39.4964 46.9523 37.9111 46.9523H31.0889C29.5065 46.9524 28.2169 48.2392 28.2168 49.8243V62.6525C28.2168 62.6787 28.214 62.7013 28.2129 62.7208C28.0648 62.6979 27.9102 62.6528 27.6436 62.5919C27.3982 62.5359 27.0998 62.4796 26.7764 62.4796C26.4531 62.4796 26.1555 62.5359 25.9102 62.5919C25.6425 62.653 25.4875 62.698 25.3389 62.7208C25.3378 62.7013 25.3359 62.6787 25.3359 62.6525V49.8243C25.336 46.6529 27.9194 44.0715 31.0889 44.0714Z" fill="black" stroke="white"/>
<path d="M49.1943 29.0819C47.5483 31.2603 44.9679 32.6844 42.0459 32.6844C39.1241 32.6844 36.5445 31.2601 34.8984 29.0819L34.499 28.5536L34.1006 29.0819C32.4545 31.2603 29.8741 32.6844 26.9521 32.6844C24.0303 32.6844 21.4507 31.2601 19.8047 29.0819L19.4053 28.5536L19.0068 29.0819C17.3608 31.2603 14.7804 32.6844 11.8584 32.6844C11.7512 32.6844 11.6404 32.6735 11.5098 32.6561C11.3883 32.64 11.2312 32.6156 11.0781 32.6024L10.5352 32.5555V58.4774C10.5352 60.0627 11.8247 61.3495 13.4072 61.3495H55.5918C57.177 61.3494 58.4639 60.0599 58.4639 58.4774V32.5516L57.917 32.6024C57.767 32.6165 57.6094 32.6404 57.4893 32.6561C57.3594 32.6731 57.248 32.6844 57.1396 32.6844C54.2178 32.6844 51.6382 31.2601 49.9922 29.0819L49.5928 28.5536L49.1943 29.0819ZM5.75195 23.6952C5.75202 27.0633 8.49032 29.8015 11.8584 29.8016C15.2266 29.8016 17.9648 27.0633 17.9648 23.6952V21.6014H5.75195V23.6952ZM20.8457 23.6952C20.8458 27.0633 23.5841 29.8015 26.9521 29.8016C30.3203 29.8016 33.0585 27.0633 33.0586 23.6952V21.6014H20.8457V23.6952ZM35.9395 23.6952C35.9395 27.0633 38.6778 29.8015 42.0459 29.8016C45.4141 29.8016 48.1523 27.0633 48.1523 23.6952V21.6014H35.9395V23.6952ZM51.0332 23.6952C51.0333 27.0633 53.7716 29.8015 57.1396 29.8016C60.5078 29.8016 63.246 27.0633 63.2461 23.6952V21.6014H51.0332V23.6952ZM12.4189 7.65027C11.2169 7.65038 10.1312 8.40332 9.71777 9.53113V9.5321L6.61523 18.0468L6.37012 18.7186H18.2031L18.2783 18.3075L20.1133 8.24011L20.2207 7.65027H12.4189ZM23.0771 8.0614L21.2422 18.1288L21.1348 18.7186H33.0586V7.65027H23.1523L23.0771 8.0614ZM35.9395 18.7186H47.8662L47.7578 18.1288L45.9209 8.06042L45.8467 7.65027H35.9395V18.7186ZM48.8857 8.24011L50.7207 18.3075L50.7949 18.7186H62.6279L62.3838 18.0468L59.2783 9.52722L59.1934 9.32117C58.7308 8.31205 57.7058 7.65027 56.5811 7.65027H48.7783L48.8857 8.24011ZM7.65332 31.5956L7.4043 31.452C4.70591 29.892 2.87114 27.0146 2.87109 23.6952V20.8573C2.87111 20.2252 2.97952 19.604 3.19434 19.0126L7.01074 8.54089C7.83967 6.2863 10.013 4.76952 12.4189 4.76941H56.5771C58.9835 4.76945 61.1567 6.28428 61.9834 8.53601L65.8018 19.0126V19.0135C66.0184 19.6043 66.1269 20.225 66.127 20.8573V23.6952C66.1269 27.0147 64.2926 29.8932 61.5947 31.451L61.3447 31.5956V58.4774C61.3447 61.647 58.7633 64.2303 55.5918 64.2303H13.4072C10.2376 64.2303 7.65332 61.649 7.65332 58.4774V31.5956Z" fill="black" stroke="white"/>
</svg>
