<svg width="134" height="134" viewBox="0 0 134 134" fill="none" xmlns="http://www.w3.org/2000/svg">
<mask id="mask0_170_825" style="mask-type:luminance" maskUnits="userSpaceOnUse" x="0" y="0" width="134" height="134">
<path d="M133.216 0H0V133.211H133.216V0Z" fill="white"/>
</mask>
<g mask="url(#mask0_170_825)">
<path d="M71.1882 10.8211C70.5825 10.7678 70.0301 10.6108 69.5311 10.35C69.0407 10.082 68.6214 9.73589 68.2733 9.31173C67.9258 8.87961 67.6713 8.39542 67.5097 7.85919C67.3488 7.31499 67.2946 6.74404 67.3472 6.14635C67.3998 5.54866 67.5525 4.99994 67.8053 4.50018C68.0588 3.99245 68.394 3.56017 68.8109 3.20335C69.2278 2.84653 69.7011 2.57899 70.2307 2.40074C70.7684 2.2232 71.34 2.16108 71.9457 2.21439C72.6231 2.27401 73.199 2.43713 73.6734 2.70376C74.1479 2.97038 74.5595 3.31179 74.9084 3.72798L73.8939 4.57831C73.6707 4.28561 73.3865 4.04777 73.0412 3.8648C72.7039 3.68252 72.3001 3.57069 71.83 3.52931C71.4156 3.49283 71.0307 3.53124 70.6754 3.64452C70.3201 3.75781 70.003 3.9387 69.7242 4.18721C69.454 4.42845 69.235 4.7264 69.0673 5.08106C68.8995 5.43571 68.7964 5.8322 68.7578 6.2705C68.7192 6.70881 68.7515 7.11721 68.8547 7.49572C68.9579 7.87423 69.1211 8.20983 69.3443 8.50253C69.5762 8.78795 69.8572 9.01747 70.1872 9.19108C70.5173 9.36469 70.8895 9.46973 71.3039 9.5062C71.8139 9.55109 72.2509 9.51326 72.6149 9.39271C72.9875 9.26489 73.3093 9.07637 73.5802 8.82716L74.4305 9.84163C74.0136 10.1984 73.5364 10.4656 72.9987 10.6432C72.4611 10.8207 71.8576 10.88 71.1882 10.8211Z" fill="white"/>
<path d="M79.4621 12.0995C78.9588 11.9685 78.5351 11.7217 78.1912 11.3593C77.8551 10.999 77.6234 10.5707 77.4962 10.0745C77.3788 9.57264 77.3907 9.05066 77.5318 8.50858C77.6749 7.95876 77.9191 7.49725 78.2643 7.12407C78.6193 6.74516 79.0314 6.48034 79.5006 6.32962C79.9796 6.17317 80.4708 6.16047 80.9741 6.29151C81.4 6.40239 81.7514 6.59309 82.0283 6.86362C82.3149 7.12842 82.5137 7.44477 82.6246 7.81268C82.7356 8.18058 82.7386 8.56588 82.6338 8.96856L82.2165 10.5716C82.1117 10.9743 81.9211 11.3092 81.6449 11.5763C81.3764 11.8454 81.0514 12.0295 80.67 12.1287C80.2907 12.2201 79.888 12.2104 79.4621 12.0995ZM79.9857 10.9459C80.4581 11.0689 80.8789 11.0089 81.2481 10.766C81.625 10.5251 81.878 10.1568 82.007 9.6612C82.0937 9.32821 82.1045 9.0168 82.0393 8.72698C81.9742 8.43716 81.8398 8.1913 81.636 7.98941C81.442 7.7818 81.1862 7.63666 80.8687 7.554C80.5589 7.47336 80.2649 7.47536 79.9865 7.56C79.7179 7.63892 79.4806 7.788 79.2747 8.00727C79.0766 8.22855 78.9341 8.50568 78.8474 8.83868C78.7607 9.17167 78.75 9.48308 78.8151 9.7729C78.8879 10.0647 79.0214 10.3145 79.2154 10.5221C79.4192 10.724 79.6759 10.8652 79.9857 10.9459ZM81.1999 12.4279L81.59 10.9294L82.1645 9.6278L82.2946 8.22288L82.6514 6.8522L83.9292 7.18484L82.4777 12.7605L81.1999 12.4279Z" fill="white"/>
</g>
<path d="M86.674 13.1341L89.4245 6.17819L90.5497 6.62313L87.7992 13.5791L86.674 13.1341ZM87.0347 8.78182L87.4391 7.75889L90.9171 9.13415L90.5126 10.1571L87.0347 8.78182Z" fill="white"/>
<path d="M92.3549 16.8932C91.8469 16.6217 91.4486 16.2637 91.1601 15.8192C90.8823 15.3715 90.731 14.8824 90.7061 14.352C90.6882 13.8254 90.8131 13.3116 91.0808 12.8107C91.3485 12.3097 91.7044 11.9239 92.1484 11.6533C92.5962 11.3755 93.0798 11.2258 93.5994 11.2042C94.126 11.1863 94.6327 11.3074 95.1195 11.5676C95.5922 11.8202 95.9501 12.1521 96.193 12.5631C96.443 12.9779 96.5685 13.4305 96.5695 13.9208C96.5775 14.415 96.4515 14.9054 96.1913 15.3923C96.146 15.477 96.0918 15.5614 96.0287 15.6456C95.9764 15.7265 95.9114 15.8142 95.8336 15.9087L91.6638 13.6801L92.1729 12.7276L95.7395 14.6338L95.1019 14.7829C95.2537 14.4649 95.3333 14.1718 95.3406 13.9035C95.3478 13.6353 95.2829 13.392 95.1457 13.1735C95.0155 12.9588 94.8093 12.776 94.5271 12.6252C94.2307 12.4668 93.9393 12.3927 93.6527 12.4028C93.3661 12.4129 93.1006 12.5023 92.8562 12.671C92.6156 12.8327 92.4105 13.0723 92.2408 13.3898C92.0711 13.7073 91.9856 14.0199 91.9844 14.3277C91.9832 14.6355 92.0632 14.9186 92.2244 15.1771C92.3894 15.4285 92.6235 15.6353 92.9269 15.7975C93.188 15.937 93.4524 16.0193 93.7201 16.0445C93.9949 16.0734 94.2571 16.0412 94.5066 15.9478L94.8458 17.0951C94.4443 17.2524 94.0275 17.3109 93.5955 17.2705C93.1636 17.2301 92.75 17.1044 92.3549 16.8932Z" fill="white"/>
<path d="M97.0218 19.4358L100.302 14.7007L101.387 15.4523L98.1069 20.1874L97.0218 19.4358ZM99.9313 17.5535L99.6862 17.1064C100.101 16.508 100.567 16.1157 101.085 15.9296C101.615 15.7416 102.149 15.8343 102.688 16.2078C102.925 16.3718 103.109 16.5626 103.24 16.7802C103.372 16.9978 103.454 17.2589 103.486 17.5635L102.27 17.8015C102.249 17.6502 102.199 17.5184 102.121 17.4061C102.043 17.2937 101.935 17.1897 101.797 17.094C101.494 16.8845 101.178 16.8068 100.849 16.8608C100.52 16.9149 100.214 17.1458 99.9313 17.5535Z" fill="white"/>
<path d="M103.441 19.1046L106.158 15.7437L106.928 16.3664L104.211 19.7273L103.441 19.1046ZM107.041 15.4388C106.911 15.3332 106.837 15.2001 106.82 15.0397C106.807 14.8831 106.854 14.7395 106.96 14.6088C107.066 14.478 107.196 14.4023 107.352 14.3816C107.512 14.3646 107.658 14.4089 107.789 14.5146C107.924 14.624 107.998 14.7571 108.01 14.9137C108.022 15.0703 107.976 15.214 107.87 15.3447C107.764 15.4754 107.634 15.5511 107.478 15.5719C107.322 15.5926 107.177 15.5483 107.041 15.4388Z" fill="white"/>
<path d="M106.497 27.1704L108.845 24.8174C109.116 24.5456 109.251 24.2343 109.251 23.8836C109.256 23.5385 109.123 23.2303 108.851 22.9591C108.67 22.7783 108.469 22.6569 108.248 22.5949C108.027 22.5329 107.807 22.5332 107.586 22.5956C107.366 22.6581 107.165 22.78 106.984 22.9612L106.822 22.3929C107.133 22.0814 107.475 21.8745 107.848 21.7723C108.227 21.6644 108.604 21.6611 108.977 21.7625C109.362 21.8639 109.704 22.0644 110.004 22.3638C110.31 22.669 110.503 23.0195 110.583 23.4154C110.668 23.8056 110.654 24.1931 110.541 24.5779C110.434 24.957 110.248 25.2797 109.982 25.5458L107.431 28.1028L106.497 27.1704ZM103.702 24.3819L107.77 20.3044L108.705 21.2368L104.636 25.3142L103.702 24.3819Z" fill="white"/>
<path d="M108.973 33.7868C108.613 33.2974 108.387 32.8027 108.297 32.3028C108.201 31.8076 108.23 31.3288 108.386 30.8662L109.594 31.0493C109.5 31.4069 109.483 31.7475 109.542 32.0711C109.602 32.3948 109.755 32.7241 110.002 33.059C110.31 33.4776 110.664 33.7286 111.063 33.812C111.456 33.9002 111.839 33.8067 112.213 33.5315L113.353 32.6918L114.512 32.1211L115.41 31.1761L116.656 30.2582L117.439 31.3208L112.995 34.5941C112.551 34.9215 112.089 35.1031 111.608 35.1389C111.122 35.1795 110.65 35.0851 110.193 34.8556C109.736 34.6261 109.329 34.2698 108.973 33.7868ZM111.063 32.173C110.759 31.7609 110.584 31.3138 110.537 30.8319C110.501 30.3516 110.589 29.8844 110.801 29.4303C111.018 28.9826 111.345 28.5975 111.783 28.2749C112.221 27.9523 112.682 27.7563 113.168 27.6869C113.658 27.6239 114.124 27.6831 114.565 27.8645C115.018 28.0476 115.396 28.3452 115.7 28.7573C115.97 29.1244 116.133 29.501 116.189 29.887C116.245 30.273 116.198 30.6406 116.048 30.9896C115.904 31.334 115.658 31.6342 115.31 31.8904L114.17 32.7301C113.829 32.9815 113.467 33.124 113.085 33.1575C112.707 33.1974 112.342 33.1335 111.99 32.9657C111.637 32.7979 111.329 32.5337 111.063 32.173ZM112.224 31.6455C112.414 31.9031 112.635 32.0881 112.886 32.2007C113.138 32.3132 113.399 32.3499 113.668 32.3106C113.948 32.273 114.22 32.157 114.484 31.9625C114.748 31.768 114.937 31.5448 115.049 31.293C115.173 31.0429 115.218 30.7809 115.185 30.5071C115.153 30.2332 115.041 29.9675 114.852 29.7099C114.662 29.4523 114.439 29.264 114.182 29.145C113.93 29.0325 113.664 28.995 113.384 29.0326C113.11 29.0654 112.841 29.1791 112.577 29.3736C112.32 29.5634 112.131 29.7865 112.012 30.043C111.893 30.2996 111.85 30.5648 111.883 30.8386C111.921 31.1189 112.034 31.3879 112.224 31.6455Z" fill="white"/>
<path d="M117.509 40.7047L124.231 37.4231L124.761 38.5104L118.04 41.792L117.509 40.7047ZM120.71 37.7341L121.699 37.2515L123.339 40.6123L122.351 41.0949L120.71 37.7341Z" fill="white"/>
<mask id="mask1_170_825" style="mask-type:luminance" maskUnits="userSpaceOnUse" x="0" y="0" width="134" height="134">
<path d="M133.216 0H0V133.211H133.216V0Z" fill="white"/>
</mask>
<g mask="url(#mask1_170_825)">
<path d="M119.155 47.2634C118.97 46.7349 118.926 46.2119 119.024 45.6942C119.13 45.1739 119.353 44.7099 119.693 44.3022C120.036 43.9021 120.472 43.6094 121 43.4239C121.529 43.2385 122.048 43.1962 122.558 43.2969C123.071 43.4052 123.527 43.6308 123.927 43.9737C124.335 44.3139 124.631 44.7482 124.817 45.2766C125.005 45.8126 125.05 46.3394 124.952 46.8571C124.854 47.3748 124.633 47.8337 124.29 48.2338C123.958 48.6388 123.527 48.934 122.999 49.1194C122.47 49.3048 121.946 49.3447 121.426 49.2391C120.908 49.141 120.445 48.9218 120.038 48.5816C119.638 48.2387 119.343 47.7993 119.155 47.2634ZM120.356 46.8422C120.464 47.1517 120.628 47.3996 120.846 47.5859C121.074 47.7771 121.335 47.8932 121.629 47.9341C121.926 47.9826 122.233 47.9512 122.55 47.8399C122.867 47.7287 123.122 47.5627 123.316 47.3421C123.51 47.1214 123.634 46.8703 123.688 46.5886C123.749 46.3042 123.725 46.0073 123.617 45.6978C123.511 45.3959 123.344 45.1493 123.115 44.958C122.897 44.7717 122.644 44.653 122.355 44.6019C122.068 44.5583 121.766 44.5922 121.449 44.7034C121.132 44.8147 120.872 44.9782 120.667 45.1939C120.466 45.4172 120.335 45.671 120.273 45.9554C120.222 46.2446 120.25 46.5402 120.356 46.8422Z" fill="white"/>
<path d="M121.972 58.2102C121.907 57.6943 121.979 57.2095 122.188 56.7559C122.398 56.3101 122.709 55.9363 123.123 55.6342C123.545 55.3391 124.034 55.1566 124.59 55.0867C125.154 55.0157 125.673 55.0713 126.147 55.2534C126.63 55.4425 127.029 55.7269 127.343 56.1067C127.666 56.4934 127.86 56.9447 127.925 57.4606C127.98 57.8972 127.933 58.2941 127.784 58.6515C127.645 59.0158 127.425 59.3176 127.124 59.557C126.824 59.7965 126.467 59.9422 126.055 59.9941L124.412 60.201C123.999 60.253 123.617 60.2002 123.267 60.0428C122.917 59.8933 122.626 59.6599 122.393 59.3425C122.167 59.0242 122.027 58.6468 121.972 58.2102ZM123.237 58.2686C123.298 58.7528 123.51 59.1212 123.872 59.3739C124.235 59.6346 124.671 59.7329 125.179 59.669C125.52 59.626 125.814 59.5205 126.059 59.3526C126.303 59.1847 126.482 58.9687 126.594 58.7047C126.715 58.4476 126.754 58.1563 126.714 57.8309C126.674 57.5134 126.563 57.2411 126.381 57.014C126.208 56.7939 125.982 56.6289 125.702 56.519C125.423 56.417 125.113 56.3876 124.771 56.4305C124.43 56.4735 124.137 56.579 123.892 56.7469C123.648 56.9227 123.466 57.1392 123.345 57.3963C123.233 57.6604 123.197 57.9511 123.237 58.2686ZM122.311 59.9454L123.847 59.752L125.269 59.8028L126.621 59.4027L128.026 59.2258L128.191 60.5355L122.476 61.2551L122.311 59.9454Z" fill="white"/>
<path d="M126.671 64.3209L133.15 64.2056L133.167 65.1954L126.688 65.3108L126.671 64.3209Z" fill="white"/>
<path d="M126.698 67.9715L133.172 68.2432L133.131 69.2323L126.656 68.9606L126.698 67.9715Z" fill="white"/>
<path d="M121.583 77.2239C121.697 76.6756 121.93 76.2051 122.281 75.8124C122.64 75.4213 123.071 75.139 123.572 74.9655C124.073 74.7999 124.597 74.7741 125.145 74.888C125.693 75.002 126.16 75.2338 126.545 75.5835C126.928 75.941 127.203 76.3698 127.368 76.87C127.542 77.3718 127.572 77.8969 127.458 78.4452C127.342 79.0013 127.108 79.4757 126.757 79.8684C126.406 80.2611 125.98 80.5403 125.48 80.706C124.986 80.8811 124.465 80.9117 123.917 80.7977C123.368 80.6837 122.899 80.4471 122.508 80.088C122.115 79.7367 121.832 79.3102 121.658 78.8084C121.493 78.3082 121.468 77.78 121.583 77.2239ZM122.828 77.4828C122.762 77.804 122.774 78.1006 122.864 78.3727C122.961 78.6543 123.125 78.8885 123.355 79.0754C123.585 79.2701 123.864 79.4017 124.193 79.4701C124.522 79.5385 124.826 79.5282 125.106 79.4393C125.386 79.3505 125.622 79.1993 125.813 78.9858C126.012 78.7739 126.145 78.5074 126.212 78.1863C126.277 77.873 126.261 77.5755 126.165 77.2939C126.074 77.0218 125.918 76.7892 125.697 76.5961C125.474 76.4109 125.198 76.284 124.869 76.2156C124.54 76.1473 124.233 76.1528 123.946 76.2322C123.659 76.3194 123.415 76.469 123.216 76.6809C123.023 76.9022 122.894 77.1695 122.828 77.4828Z" fill="white"/>
<path d="M120.125 83.4788L126.316 85.5113C126.734 85.6486 127.072 85.8608 127.332 86.148C127.589 86.4429 127.755 86.7836 127.83 87.1704C127.902 87.5647 127.868 87.9785 127.725 88.4117C127.616 88.7462 127.465 89.0125 127.274 89.2107C127.082 89.4089 126.846 89.5756 126.566 89.711L126.023 88.6357C126.144 88.5745 126.248 88.4994 126.336 88.4104C126.425 88.3215 126.496 88.1934 126.551 88.0262C126.651 87.7222 126.645 87.4591 126.532 87.237C126.425 87.0249 126.219 86.869 125.915 86.7692L119.713 84.733L120.125 83.4788ZM124.888 83.5901L126.028 83.9644L124.643 88.1828L123.503 87.8085L124.888 83.5901Z" fill="white"/>
</g>
<path d="M119.437 93.9132L125.424 93.3688L124.679 94.7803L119.93 95.1641L120.278 94.5061L122.639 98.6431L121.906 100.033L118.989 94.7622L119.437 93.9132ZM116.555 92.1749L120.291 94.1467L119.647 95.3672L115.911 93.3953L116.555 92.1749Z" fill="white"/>
<path d="M112.419 98.7911C112.749 98.3381 113.154 98.0048 113.636 97.7911C114.124 97.5821 114.632 97.5017 115.161 97.5497C115.685 97.6043 116.174 97.7961 116.627 98.1254C117.08 98.4546 117.41 98.8577 117.617 99.3346C117.819 99.818 117.893 100.322 117.839 100.846C117.791 101.375 117.602 101.866 117.273 102.319C116.939 102.778 116.531 103.115 116.05 103.328C115.568 103.542 115.065 103.621 114.541 103.567C114.019 103.524 113.531 103.337 113.078 103.008C112.625 102.679 112.294 102.27 112.085 101.782C111.871 101.3 111.789 100.795 111.837 100.266C111.891 99.7424 112.085 99.2506 112.419 98.7911ZM113.448 99.5389C113.256 99.8043 113.144 100.08 113.115 100.365C113.088 100.661 113.141 100.942 113.274 101.207C113.403 101.479 113.603 101.714 113.875 101.911C114.147 102.109 114.429 102.224 114.721 102.258C115.012 102.293 115.289 102.252 115.552 102.136C115.82 102.024 116.051 101.836 116.244 101.571C116.432 101.312 116.54 101.034 116.568 100.738C116.597 100.452 116.55 100.176 116.428 99.9094C116.301 99.6488 116.101 99.4198 115.829 99.2223C115.558 99.0247 115.275 98.9034 114.981 98.8582C114.683 98.8195 114.4 98.8557 114.131 98.967C113.864 99.0894 113.636 99.2801 113.448 99.5389Z" fill="white"/>
<path d="M107.414 104.942C107.756 104.594 108.138 104.358 108.561 104.235C108.979 104.118 109.398 104.114 109.817 104.223C110.237 104.344 110.624 104.577 110.978 104.925L113.368 107.269L112.444 108.212L110.097 105.909C109.897 105.713 109.695 105.576 109.49 105.499C109.286 105.433 109.085 105.427 108.887 105.48C108.684 105.538 108.496 105.656 108.322 105.833C108.053 106.107 107.929 106.394 107.949 106.694C107.969 107.005 108.13 107.309 108.433 107.605L110.78 109.908L109.856 110.85L107.466 108.506C107.106 108.153 106.865 107.765 106.742 107.342C106.619 106.93 106.612 106.514 106.721 106.095C106.836 105.681 107.067 105.296 107.414 104.942Z" fill="white"/>
<path d="M103.139 109.218L106.748 113.707L105.719 114.534L102.11 110.045L103.139 109.218ZM104.118 112.542L104.616 112.434C105.072 113.001 105.316 113.56 105.347 114.109C105.377 114.67 105.137 115.156 104.625 115.567C104.401 115.748 104.166 115.87 103.92 115.934C103.674 115.999 103.4 116.003 103.099 115.948L103.216 114.714C103.367 114.736 103.508 114.726 103.637 114.683C103.767 114.64 103.898 114.566 104.029 114.461C104.315 114.231 104.48 113.95 104.521 113.618C104.563 113.287 104.429 112.928 104.118 112.542Z" fill="white"/>
<path d="M95.5674 114.744L96.1625 115.854L94.2164 116.897C93.7087 117.169 93.323 117.517 93.0594 117.939C92.7887 118.366 92.6515 118.829 92.6478 119.331C92.6408 119.843 92.7753 120.356 93.0511 120.871C93.3232 121.378 93.6725 121.768 94.0989 122.038C94.5253 122.309 94.991 122.45 95.496 122.46C95.9939 122.475 96.4932 122.348 96.9938 122.08L98.94 121.037L99.5351 122.147L97.5572 123.207C97.0213 123.495 96.4732 123.666 95.9128 123.721C95.3563 123.783 94.818 123.736 94.2982 123.579C93.7751 123.433 93.2974 123.185 92.8652 122.836C92.4367 122.493 92.0808 122.058 91.7974 121.529C91.5178 121.007 91.3522 120.47 91.3008 119.916C91.2493 119.363 91.3021 118.826 91.4592 118.307C91.62 117.794 91.8786 117.319 92.2349 116.883C92.595 116.454 93.0395 116.098 93.5683 115.815L95.5674 114.744ZM96.4029 114.296L100.371 121.7L99.1543 122.351L95.1866 114.948L96.4029 114.296Z" fill="white"/>
<mask id="mask2_170_825" style="mask-type:luminance" maskUnits="userSpaceOnUse" x="0" y="0" width="134" height="134">
<path d="M133.216 0H0V133.211H133.216V0Z" fill="white"/>
</mask>
<g mask="url(#mask2_170_825)">
<path d="M85.8519 119.193C86.3952 119.002 86.9282 118.95 87.4509 119.037C87.9687 119.134 88.4316 119.353 88.8397 119.693C89.2402 120.035 89.5348 120.474 89.7235 121.01C89.9122 121.546 89.9564 122.069 89.8562 122.579C89.7587 123.097 89.5425 123.555 89.2077 123.952C88.8653 124.353 88.4338 124.645 87.9131 124.828C87.4076 125.006 86.9212 125.046 86.454 124.948C85.9792 124.852 85.5606 124.639 85.1983 124.309C84.8284 123.981 84.5518 123.557 84.3684 123.036C84.3365 122.946 84.3108 122.849 84.2914 122.745C84.267 122.652 84.2462 122.545 84.229 122.424L88.6885 120.853L89.0473 121.872L85.233 123.215L85.5535 122.644C85.6855 122.971 85.848 123.227 86.0409 123.414C86.2338 123.6 86.4572 123.717 86.711 123.763C86.9572 123.812 87.2313 123.783 87.5331 123.677C87.85 123.566 88.1015 123.401 88.2876 123.182C88.4737 122.964 88.587 122.708 88.6276 122.414C88.6708 122.127 88.6326 121.814 88.513 121.474C88.3934 121.135 88.2205 120.861 87.9944 120.652C87.7682 120.443 87.5053 120.311 87.2058 120.256C86.909 120.207 86.5983 120.24 86.2739 120.355C85.9947 120.453 85.7554 120.593 85.556 120.773C85.3491 120.956 85.1959 121.171 85.0963 121.418L84.021 120.894C84.1761 120.491 84.4144 120.145 84.7359 119.853C85.0574 119.562 85.4294 119.342 85.8519 119.193Z" fill="white"/>
<path d="M77.0033 121.748L77.6382 125.012C77.7115 125.389 77.8937 125.676 78.1846 125.872C78.4676 126.069 78.7977 126.132 79.1748 126.058C79.4262 126.009 79.6394 125.911 79.8144 125.763C79.9894 125.614 80.1128 125.431 80.1845 125.214C80.2563 124.996 80.2678 124.761 80.2189 124.51L80.7806 124.694C80.8646 125.126 80.8445 125.526 80.7201 125.892C80.5973 126.267 80.3892 126.58 80.0959 126.833C79.7963 127.095 79.4383 127.267 79.022 127.348C78.5977 127.43 78.1993 127.394 77.8265 127.238C77.4553 127.09 77.1418 126.861 76.886 126.552C76.6318 126.251 76.4688 125.916 76.397 125.547L75.7071 122L77.0033 121.748ZM80.8802 120.994L81.9804 126.65L80.6842 126.902L79.584 121.246L80.8802 120.994Z" fill="white"/>
<path d="M71.9194 123.468L72.4781 130.927L71.2715 131.017L70.7127 123.558L71.9194 123.468ZM73.4931 127.542L73.5752 128.639L69.8457 128.918L69.7635 127.821L73.4931 127.542Z" fill="white"/>
<path d="M65.4442 122.589C65.9637 122.612 66.4294 122.764 66.8413 123.047C67.2453 123.329 67.5613 123.699 67.7894 124.157C68.009 124.624 68.1066 125.136 68.0819 125.696C68.0569 126.263 67.9147 126.765 67.6552 127.202C67.3874 127.647 67.0399 127.992 66.6127 128.237C66.1772 128.491 65.6997 128.606 65.1802 128.583C64.7406 128.563 64.3572 128.45 64.03 128.244C63.6945 128.045 63.434 127.777 63.2486 127.441C63.0633 127.104 62.9797 126.728 62.998 126.313L63.0709 124.658C63.0892 124.243 63.2055 123.875 63.4197 123.557C63.6259 123.237 63.9051 122.989 64.2572 122.813C64.609 122.644 65.0046 122.569 65.4442 122.589ZM65.1735 123.826C64.686 123.805 64.2871 123.951 63.977 124.266C63.6589 124.58 63.4886 124.993 63.466 125.504C63.4509 125.848 63.5054 126.155 63.6297 126.424C63.7539 126.694 63.9368 126.906 64.1782 127.061C64.4113 127.224 64.6916 127.312 65.0193 127.326C65.339 127.341 65.626 127.277 65.8805 127.136C66.1266 127.003 66.3274 126.808 66.4828 126.55C66.6303 126.292 66.7116 125.992 66.7268 125.648C66.7419 125.304 66.6873 124.998 66.5631 124.728C66.4309 124.458 66.2482 124.242 66.0151 124.079C65.7737 123.924 65.4932 123.84 65.1735 123.826ZM63.6767 122.631L63.6086 124.177L63.319 125.57L63.4855 126.971L63.4232 128.385L62.1045 128.327L62.358 122.573L63.6767 122.631Z" fill="white"/>
<path d="M58.6264 126.189L57.6451 132.594L56.6665 132.444L57.6478 126.039L58.6264 126.189Z" fill="white"/>
<path d="M52.3021 120.996L49.6141 128.951L48.705 128.644L48.8141 127.009L50.9952 120.554L52.3021 120.996ZM46.7905 119.134L49.4516 126.959L48.705 128.644L46.0439 120.818L46.7905 119.134ZM46.7905 119.134L46.716 120.666L44.5003 127.223L43.1934 126.781L45.8814 118.826L46.7905 119.134Z" fill="white"/>
</g>
<path d="M41.3723 116.589C41.883 116.855 42.285 117.209 42.5781 117.651C42.8604 118.096 43.0167 118.583 43.0471 119.113C43.0704 119.64 42.9508 120.155 42.6882 120.658C42.4257 121.162 42.0738 121.552 41.6326 121.827C41.1877 122.109 40.7056 122.264 40.1863 122.291C39.6599 122.314 39.152 122.198 38.6625 121.943C38.1872 121.695 37.826 121.367 37.5788 120.958C37.3246 120.546 37.1945 120.095 37.1884 119.605C37.1753 119.111 37.2963 118.619 37.5515 118.129C37.5959 118.044 37.6492 117.959 37.7115 117.874C37.763 117.793 37.8271 117.705 37.9038 117.609L42.0963 119.795L41.5971 120.753L38.0111 118.883L38.6471 118.728C38.4985 119.047 38.422 119.341 38.4175 119.609C38.4129 119.878 38.4804 120.12 38.6199 120.337C38.7522 120.551 38.9603 120.731 39.244 120.879C39.542 121.035 39.8342 121.106 40.1207 121.093C40.4071 121.08 40.6717 120.987 40.9143 120.816C41.1533 120.652 41.356 120.41 41.5224 120.091C41.6888 119.772 41.771 119.459 41.7691 119.151C41.7671 118.843 41.6842 118.561 41.5204 118.304C41.3529 118.054 41.1166 117.85 40.8115 117.691C40.5491 117.554 40.2838 117.474 40.0159 117.452C39.7408 117.426 39.479 117.461 39.2305 117.557L38.8795 116.413C39.2794 116.251 39.6955 116.189 40.1279 116.225C40.5602 116.261 40.975 116.382 41.3723 116.589Z" fill="white"/>
<path d="M34.5624 112.511C35.0303 112.847 35.3782 113.254 35.6059 113.733C35.8224 114.213 35.9083 114.718 35.8634 115.247C35.812 115.771 35.6207 116.264 35.2895 116.726C34.9584 117.187 34.5549 117.523 34.0793 117.733C33.5989 117.95 33.0998 118.035 32.5819 117.988C32.0575 117.936 31.5711 117.75 31.1226 117.428C30.6871 117.116 30.3759 116.74 30.1891 116.3C29.9957 115.856 29.9307 115.391 29.9941 114.905C30.051 114.414 30.2403 113.944 30.5622 113.496C30.6181 113.418 30.6829 113.341 30.7566 113.266C30.8191 113.193 30.895 113.114 30.9845 113.031L34.8257 115.787L34.196 116.665L30.9105 114.307L31.5621 114.243C31.3699 114.538 31.2525 114.818 31.2101 115.083C31.1677 115.348 31.2001 115.598 31.3075 115.833C31.4083 116.063 31.5888 116.271 31.8487 116.457C32.1217 116.653 32.4009 116.765 32.6864 116.793C32.9718 116.82 33.2467 116.766 33.5112 116.631C33.7709 116.503 34.0057 116.292 34.2156 115.999C34.4255 115.707 34.5513 115.408 34.5929 115.103C34.6345 114.798 34.5923 114.507 34.4665 114.23C34.3359 113.959 34.1309 113.723 33.8515 113.523C33.611 113.35 33.3597 113.234 33.0976 113.174C32.8289 113.109 32.5648 113.106 32.3052 113.166L32.1195 111.984C32.5383 111.881 32.9591 111.878 33.382 111.975C33.8049 112.071 34.1984 112.25 34.5624 112.511Z" fill="white"/>
<path d="M28.5941 107.719C28.9675 108.08 29.2145 108.504 29.3352 108.988C29.4502 109.467 29.4408 109.954 29.307 110.448C29.162 110.943 28.8946 111.391 28.5048 111.793C28.1095 112.201 27.6697 112.482 27.1856 112.637C26.6902 112.792 26.2012 112.819 25.7188 112.719C25.2251 112.619 24.7915 112.388 24.4181 112.027C24.1022 111.72 23.8905 111.381 23.7828 111.01C23.6639 110.638 23.6468 110.265 23.7315 109.89C23.8162 109.516 24.0033 109.179 24.2928 108.88L25.4454 107.691C25.7349 107.392 26.0656 107.195 26.4375 107.099C26.8037 106.997 27.1771 106.997 27.5577 107.098C27.9327 107.205 28.2782 107.412 28.5941 107.719ZM27.5704 108.464C27.3349 108.236 27.0809 108.09 26.8084 108.026C26.5245 107.963 26.2419 107.979 25.9605 108.073C25.6791 108.168 25.4187 108.339 25.1793 108.586C24.9399 108.833 24.7771 109.099 24.691 109.383C24.6049 109.667 24.6008 109.947 24.6786 110.223C24.7451 110.5 24.8962 110.752 25.1317 110.98C25.3614 111.203 25.6182 111.346 25.9021 111.409C26.1746 111.473 26.4545 111.46 26.7416 111.371C27.023 111.276 27.2834 111.105 27.5228 110.858C27.7623 110.611 27.925 110.345 28.0111 110.061C28.0915 109.771 28.0984 109.488 28.0318 109.212C27.954 108.936 27.8002 108.687 27.5704 108.464ZM26.2963 105.658L27.2441 106.577L26.1667 107.688L25.0258 108.538L24.2206 109.696L21.2306 112.78L20.2829 111.862L26.2963 105.658Z" fill="white"/>
<path d="M22.9885 101.695C23.185 101.947 23.3426 102.215 23.4612 102.497C23.5735 102.785 23.6458 103.073 23.6782 103.362C23.7042 103.656 23.6853 103.944 23.6216 104.227L22.4431 104.08C22.5033 103.78 22.5022 103.492 22.4397 103.216C22.3659 102.939 22.2284 102.671 22.027 102.413C21.8452 102.179 21.673 102.029 21.5102 101.963C21.3475 101.897 21.1998 101.916 21.0673 102.019C20.9284 102.127 20.8653 102.268 20.878 102.44C20.8907 102.613 20.943 102.81 21.0349 103.033C21.1156 103.253 21.2062 103.487 21.3066 103.733C21.402 103.973 21.4737 104.221 21.5214 104.478C21.558 104.733 21.5352 104.984 21.4532 105.231C21.3712 105.477 21.1945 105.705 20.9231 105.917C20.6327 106.143 20.3318 106.27 20.0204 106.3C19.704 106.323 19.3933 106.256 19.0881 106.098C18.778 105.934 18.4878 105.678 18.2177 105.331C17.9328 104.965 17.7486 104.592 17.665 104.211C17.5702 103.829 17.5785 103.442 17.6899 103.051L18.8684 103.198C18.8075 103.459 18.8023 103.706 18.8529 103.94C18.9034 104.174 19.0147 104.402 19.1866 104.623C19.3487 104.831 19.5055 104.968 19.657 105.032C19.8086 105.097 19.9443 105.082 20.0642 104.989C20.1905 104.891 20.2441 104.758 20.2251 104.59C20.2061 104.422 20.1531 104.231 20.0661 104.015C19.9741 103.792 19.8836 103.559 19.7944 103.314C19.6941 103.068 19.6287 102.814 19.5985 102.554C19.5571 102.293 19.5805 102.036 19.6688 101.785C19.7508 101.539 19.9307 101.308 20.2084 101.091C20.6503 100.748 21.1209 100.63 21.6204 100.738C22.1199 100.845 22.5759 101.164 22.9885 101.695Z" fill="white"/>
<path d="M17.0951 92.7686C17.327 93.234 17.4194 93.7153 17.3722 94.2126C17.3215 94.7026 17.1509 95.1586 16.8606 95.5803C16.5595 95.9985 16.1583 96.3325 15.6571 96.5822C15.1488 96.8356 14.6406 96.9547 14.1326 96.9397C13.6139 96.9211 13.1436 96.7846 12.7218 96.53C12.2892 96.2718 11.957 95.91 11.7251 95.4446C11.5288 95.0508 11.4417 94.6608 11.4637 94.2744C11.4749 93.8845 11.5828 93.5268 11.7871 93.2016C11.9915 92.8763 12.2798 92.6209 12.6521 92.4353L14.1343 91.6967C14.5066 91.5112 14.8841 91.4348 15.2669 91.4675C15.6461 91.4931 15.9983 91.617 16.3236 91.8392C16.6417 92.065 16.8988 92.3748 17.0951 92.7686ZM15.8818 93.1319C15.6641 92.6952 15.3425 92.4175 14.9169 92.2988C14.4878 92.173 14.0441 92.2243 13.5859 92.4527C13.278 92.6061 13.0362 92.8025 12.8606 93.042C12.685 93.2815 12.588 93.5443 12.5698 93.8305C12.5408 94.1131 12.5994 94.4011 12.7457 94.6947C12.8884 94.9811 13.0831 95.2014 13.3298 95.3556C13.5657 95.5061 13.8339 95.587 14.1344 95.5981C14.4313 95.6021 14.7337 95.5274 15.0416 95.374C15.3495 95.2205 15.5912 95.0241 15.7669 94.7846C15.9389 94.538 16.0395 94.2734 16.0685 93.9908C16.0867 93.7046 16.0245 93.4183 15.8818 93.1319ZM16.2009 91.2434L14.8155 91.9338L13.4572 92.3559L12.3131 93.1808L11.0457 93.8123L10.457 92.6309L15.6122 90.062L16.2009 91.2434Z" fill="white"/>
<mask id="mask3_170_825" style="mask-type:luminance" maskUnits="userSpaceOnUse" x="0" y="0" width="134" height="134">
<path d="M133.216 0H0V133.211H133.216V0Z" fill="white"/>
</mask>
<g mask="url(#mask3_170_825)">
<path d="M13.0515 83.3402L9.88523 84.3519C9.51945 84.4688 9.25618 84.6831 9.09544 84.9948C8.93226 85.2989 8.90911 85.6339 9.02599 85.9996C9.10391 86.2435 9.22665 86.4436 9.39422 86.6001C9.56178 86.7565 9.75786 86.8576 9.98246 86.9034C10.2071 86.9492 10.4413 86.9332 10.6851 86.8552L10.5679 87.4344C10.1487 87.5683 9.74994 87.595 9.37144 87.5144C8.98532 87.4362 8.64968 87.2663 8.36452 87.0047C8.0693 86.7379 7.85716 86.4025 7.7281 85.9987C7.59661 85.5872 7.58641 85.1873 7.69751 84.799C7.80099 84.4132 7.99116 84.0753 8.26801 83.7853C8.53725 83.4977 8.85095 83.2967 9.20911 83.1822L12.6497 82.0828L13.0515 83.3402ZM14.2532 87.1008L8.76651 88.8541L8.36473 87.5967L13.8514 85.8435L14.2532 87.1008Z" fill="white"/>
<path d="M11.5271 76.7046C11.6079 77.2183 11.5508 77.7051 11.3558 78.1649C11.1596 78.6169 10.8595 79.0002 10.4555 79.3147C10.0423 79.6226 9.55909 79.8201 9.00589 79.9071C8.44478 79.9953 7.92431 79.9556 7.44447 79.7881C6.95548 79.614 6.54829 79.3419 6.22288 78.972C5.88833 78.5953 5.68067 78.1502 5.59991 77.6365C5.53157 77.2018 5.56614 76.8036 5.70363 76.4419C5.83197 76.0735 6.04262 75.765 6.33557 75.5165C6.62853 75.268 6.98048 75.1114 7.39144 75.0468L9.02734 74.7896C9.43829 74.725 9.82131 74.766 10.1764 74.9127C10.5302 75.0514 10.8287 75.2758 11.0718 75.5858C11.307 75.897 11.4588 76.27 11.5271 76.7046ZM10.2607 76.6851C10.2098 76.3611 10.0945 76.0917 9.91499 75.877C9.72632 75.6556 9.49102 75.4982 9.2091 75.4049C8.92718 75.3115 8.61631 75.2916 8.27648 75.345C7.93666 75.3984 7.64691 75.5128 7.40723 75.6882C7.16756 75.8635 6.99586 76.0849 6.89212 76.3522C6.77924 76.6129 6.74827 76.9053 6.79922 77.2293C6.84892 77.5454 6.9681 77.8142 7.15678 78.0355C7.3363 78.2503 7.56765 78.4082 7.85081 78.5095C8.13273 78.6028 8.4436 78.6228 8.78343 78.5694C9.12325 78.5159 9.413 78.4016 9.65268 78.2262C9.89111 78.043 10.0668 77.821 10.1796 77.5603C10.2834 77.2929 10.3104 77.0012 10.2607 76.6851ZM10.9296 73.6767L11.1346 74.9807L9.60537 75.2211L8.18299 75.2139L6.8433 75.6553L2.59943 76.3226L2.39441 75.0186L10.9296 73.6767Z" fill="white"/>
<path d="M10.4488 65.9525L9.19121 65.8753L9.32651 63.6715C9.3618 63.0966 9.26892 62.5859 9.04785 62.1395C8.82728 61.6851 8.50476 61.3247 8.08029 61.0582C7.64833 60.7832 7.1409 60.6278 6.558 60.592C5.98308 60.5567 5.46844 60.6494 5.01407 60.87C4.5597 61.0905 4.19526 61.4128 3.92077 61.8368C3.64676 62.2528 3.49236 62.7442 3.45756 63.3112L3.32226 65.515L2.06463 65.4378L2.20213 63.198C2.23938 62.5912 2.38174 62.0349 2.6292 61.5291C2.86867 61.0228 3.19181 60.5898 3.59862 60.23C3.99793 59.8618 4.45972 59.5856 4.984 59.4014C5.50029 59.2166 6.05787 59.1427 6.65674 59.1794C7.24763 59.2157 7.79197 59.3573 8.28977 59.6043C8.78758 59.8513 9.21635 60.1782 9.5761 60.585C9.92787 60.9913 10.1956 61.4606 10.3793 61.9928C10.5551 62.5246 10.6246 63.0899 10.5878 63.6888L10.4488 65.9525ZM10.3908 66.8987L2.00654 66.384L2.0911 65.0066L10.4753 65.5213L10.3908 66.8987Z" fill="white"/>
<path d="M11.7665 55.3574C11.6444 55.9202 11.4091 56.4011 11.0606 56.8001C10.706 57.1897 10.2772 57.469 9.77398 57.6381C9.2725 57.7993 8.74429 57.8197 8.18936 57.6993C7.63442 57.5789 7.16609 57.3423 6.78436 56.9894C6.39482 56.6348 6.11857 56.2106 5.95562 55.717C5.79436 55.2155 5.77225 54.6951 5.88927 54.1558C6.0029 53.6321 6.22411 53.1973 6.55291 52.8512C6.88339 52.4974 7.28426 52.2529 7.75551 52.1178C8.22845 51.9749 8.73458 51.962 9.27388 52.079C9.36767 52.0994 9.46368 52.1284 9.56189 52.166C9.65399 52.1942 9.75611 52.2327 9.86827 52.2816L8.86593 56.9009L7.81077 56.6719L8.6681 52.7209L8.98586 53.2932C8.63856 53.2342 8.33495 53.2379 8.07503 53.3043C7.81511 53.3706 7.59888 53.4997 7.42634 53.6914C7.25549 53.8753 7.13615 54.1235 7.06831 54.4362C6.99707 54.7644 7.00551 55.065 7.09363 55.3378C7.18174 55.6106 7.34034 55.8415 7.56944 56.0303C7.79072 56.2175 8.07722 56.3492 8.42894 56.4255C8.78066 56.5018 9.10465 56.4985 9.40093 56.4155C9.6972 56.3324 9.94757 56.1781 10.152 55.9524C10.3487 55.725 10.4835 55.4432 10.5564 55.1071C10.6192 54.8179 10.626 54.5412 10.577 54.2768C10.5297 54.0047 10.4269 53.7614 10.2689 53.5471L11.2793 52.907C11.5404 53.2501 11.7107 53.6349 11.79 54.0613C11.8693 54.4877 11.8615 54.9197 11.7665 55.3574Z" fill="white"/>
<path d="M13.6423 48.4426C13.5335 48.7436 13.3912 49.0196 13.2153 49.2708C13.0319 49.5192 12.8266 49.7342 12.5993 49.9157C12.3645 50.0946 12.1105 50.2324 11.8373 50.3293L11.333 49.2537C11.6191 49.1445 11.8622 48.9899 12.0621 48.79C12.2572 48.5798 12.4105 48.3205 12.522 48.012C12.6226 47.7337 12.6574 47.5081 12.6264 47.3352C12.5953 47.1623 12.5008 47.0473 12.3428 46.9902C12.1772 46.9304 12.0249 46.9518 11.8856 47.0546C11.7464 47.1574 11.6072 47.307 11.4682 47.5034C11.3243 47.6896 11.175 47.8908 11.0202 48.1071C10.8682 48.3158 10.6963 48.5089 10.5046 48.6862C10.308 48.8534 10.0837 48.9679 9.83161 49.0299C9.57952 49.0919 9.29172 49.0644 8.96822 48.9474C8.62214 48.8223 8.35353 48.6358 8.16238 48.3881C7.97396 48.1328 7.86508 47.834 7.83574 47.4916C7.80913 47.1417 7.87062 46.7599 8.02023 46.3461C8.178 45.9097 8.39572 45.5546 8.6734 45.2807C8.94627 44.9966 9.27774 44.7974 9.6678 44.6832L10.1721 45.7588C9.91941 45.8461 9.70742 45.9736 9.53617 46.1413C9.36493 46.3091 9.2317 46.5247 9.13649 46.788C9.04673 47.0362 9.01498 47.2417 9.04125 47.4043C9.06752 47.5669 9.15213 47.6741 9.29508 47.7258C9.44554 47.7802 9.58664 47.7546 9.71835 47.6491C9.85007 47.5436 9.98411 47.3964 10.1205 47.2075C10.2595 47.0111 10.4088 46.8099 10.5684 46.6039C10.7232 46.3876 10.9026 46.1973 11.1066 46.0329C11.3059 45.8582 11.5353 45.7412 11.7949 45.682C12.047 45.62 12.3386 45.6489 12.6696 45.7686C13.1963 45.959 13.5472 46.2943 13.7223 46.7744C13.8975 47.2546 13.8708 47.8107 13.6423 48.4426Z" fill="white"/>
</g>
<path d="M11.6832 42.1688L7.77304 40.3322L8.19392 39.4361L12.1041 41.2727L11.6832 42.1688ZM7.26662 39.5475C7.1952 39.6995 7.08366 39.8029 6.93201 39.8576C6.78291 39.9069 6.63233 39.8959 6.48027 39.8244C6.32821 39.753 6.22354 39.6442 6.16627 39.498C6.11155 39.3463 6.1199 39.1945 6.19132 39.0424C6.2653 38.8849 6.37683 38.7815 6.52593 38.7322C6.67503 38.6829 6.82561 38.694 6.97767 38.7654C7.12974 38.8369 7.2344 38.9457 7.29167 39.0919C7.34894 39.2381 7.34059 39.39 7.26662 39.5475Z" fill="white"/>
<path d="M16.8366 40.6537L11.8207 37.8222L12.4696 36.6727L17.4855 39.5042L16.8366 40.6537ZM14.6954 37.9292L14.2727 38.2142C13.6387 37.8563 13.2053 37.4279 12.9725 36.929C12.7366 36.4192 12.78 35.8787 13.1024 35.3074C13.244 35.0566 13.4171 34.8558 13.6217 34.7049C13.8263 34.554 14.0788 34.4484 14.3792 34.3883L14.7277 35.5773C14.5791 35.6128 14.4524 35.6745 14.3477 35.7623C14.2429 35.8502 14.1493 35.9673 14.0667 36.1136C13.8858 36.434 13.8374 36.7558 13.9214 37.0788C14.0055 37.4019 14.2635 37.6853 14.6954 37.9292Z" fill="white"/>
<path d="M20.9119 34.2686C20.5732 34.7346 20.1639 35.08 19.684 35.3048C19.2023 35.5185 18.697 35.6013 18.1681 35.5532C17.644 35.4987 17.1522 35.3044 16.6927 34.9704C16.2332 34.6364 15.8998 34.231 15.6926 33.754C15.4789 33.2722 15.397 32.7726 15.4469 32.2549C15.5014 31.7308 15.691 31.2454 16.0156 30.7988C16.3307 30.3652 16.7086 30.0563 17.1491 29.872C17.5944 29.6813 18.0599 29.6191 18.5458 29.6854C19.0364 29.7453 19.505 29.9375 19.9516 30.2621C20.0293 30.3185 20.1055 30.3838 20.1802 30.4579C20.2531 30.5208 20.3311 30.5973 20.4141 30.6873L17.634 34.5122L16.7603 33.8772L19.1382 30.6056L19.1984 31.2576C18.9042 31.0636 18.6247 30.9445 18.36 30.9005C18.0953 30.8565 17.8453 30.8874 17.61 30.9934C17.3795 31.0929 17.1701 31.272 16.982 31.5309C16.7844 31.8027 16.6709 32.0813 16.6416 32.3666C16.6123 32.6519 16.6644 32.9272 16.798 33.1924C16.9252 33.453 17.1344 33.6891 17.4256 33.9008C17.7168 34.1125 18.0148 34.24 18.3195 34.2835C18.6243 34.3269 18.9157 34.2865 19.1939 34.1623C19.4656 34.0334 19.7026 33.8298 19.9049 33.5515C20.079 33.3121 20.1968 33.0614 20.2585 32.7997C20.3249 32.5314 20.329 32.2673 20.2706 32.0073L21.4538 31.8287C21.5545 32.2481 21.5553 32.669 21.456 33.0914C21.3567 33.5138 21.1753 33.9062 20.9119 34.2686Z" fill="white"/>
<path d="M25.413 28.7063C25.1924 28.9381 24.9512 29.1337 24.6892 29.293C24.4214 29.4468 24.147 29.5612 23.866 29.6361C23.5791 29.7055 23.2911 29.7297 23.002 29.7086L22.9723 28.521C23.2783 28.536 23.5629 28.4921 23.8263 28.3894C24.0894 28.2753 24.334 28.0994 24.5601 27.8618C24.7641 27.6473 24.8866 27.4547 24.9276 27.2839C24.9686 27.1131 24.9283 26.9698 24.8066 26.8541C24.679 26.7328 24.5309 26.6912 24.3621 26.7293C24.1933 26.7675 24.0057 26.8486 23.7995 26.9726C23.5929 27.0852 23.3753 27.2095 23.1467 27.3454C22.9236 27.4754 22.6886 27.5831 22.4418 27.6685C22.1947 27.7426 21.9432 27.7574 21.6875 27.7128C21.4317 27.6683 21.1792 27.5274 20.93 27.2903C20.6634 27.0367 20.4923 26.758 20.4168 26.4544C20.3468 26.1449 20.3672 25.8275 20.4779 25.5022C20.5942 25.1711 20.8039 24.8461 21.1072 24.5273C21.427 24.1912 21.769 23.9535 22.1334 23.8142C22.4974 23.6637 22.881 23.6145 23.284 23.6667L23.3137 24.8542C23.0472 24.8326 22.8018 24.8642 22.5776 24.949C22.3534 25.0338 22.1448 25.1776 21.9518 25.3805C21.7698 25.5718 21.6582 25.7472 21.6169 25.9066C21.5756 26.0661 21.61 26.1982 21.7202 26.303C21.8361 26.4133 21.9756 26.4466 22.1386 26.4029C22.3016 26.3592 22.4835 26.2783 22.6842 26.1601C22.8905 26.0361 23.1081 25.9119 23.337 25.7873C23.5656 25.6515 23.8064 25.5492 24.0593 25.4807C24.3119 25.4008 24.569 25.3859 24.8306 25.436C25.0863 25.4805 25.3417 25.6241 25.5968 25.8667C26.0025 26.2527 26.1891 26.7007 26.1566 27.2108C26.124 27.7209 25.8762 28.2194 25.413 28.7063Z" fill="white"/>
<mask id="mask4_170_825" style="mask-type:luminance" maskUnits="userSpaceOnUse" x="0" y="0" width="134" height="134">
<path d="M133.216 0H0V133.211H133.216V0Z" fill="white"/>
</mask>
<g mask="url(#mask4_170_825)">
<path d="M44.1261 11.7149C44.1261 12.3233 43.9457 12.918 43.6077 13.4239C43.2697 13.9297 42.7893 14.324 42.2273 14.5568C41.6652 14.7896 41.0467 14.8505 40.45 14.7318C39.8533 14.6131 39.3052 14.3202 38.8751 13.89C38.4449 13.4598 38.1519 12.9117 38.0332 12.315C37.9145 11.7183 37.9755 11.0998 38.2083 10.5378C38.4411 9.97572 38.8353 9.49531 39.3412 9.15732C39.847 8.81932 40.4417 8.63892 41.0501 8.63892C41.8659 8.63892 42.6483 8.96299 43.2252 9.53986C43.802 10.1167 44.1261 10.8991 44.1261 11.7149Z" fill="white"/>
</g>
</svg>
