<svg width="40" height="33" viewBox="0 0 40 33" fill="none" xmlns="http://www.w3.org/2000/svg">
<path d="M38.298 14.606L20.677 13.313L26.249 24.619C32.907 23.195 37.806 19.291 38.298 14.606Z" stroke="#041C28" stroke-width="2" stroke-linecap="round" stroke-linejoin="round"/>
<path d="M36.273 11.433C35.53 5.592 27.931 1 18.667 1C8.91 1 1 6.093 1 12.375C1 18.657 8.91 23.75 18.667 23.75C20.099 23.7513 21.5288 23.639 22.943 23.414L22.972 29.923C21.5597 30.146 20.1307 30.2464 18.701 30.223C8.925 30.223 1.001 25.13 1.001 18.848V12.375" stroke="#041C28" stroke-width="2" stroke-linecap="round" stroke-linejoin="round"/>
<path d="M38.412 14.606V20.924C38.412 25.951 33.336 30.217 26.298 31.724V24.624" stroke="#041C28" stroke-width="2" stroke-linecap="round" stroke-linejoin="round"/>
</svg>
