<svg width="137" height="28" viewBox="0 0 137 28" fill="none" xmlns="http://www.w3.org/2000/svg">
<g opacity="0.3">
<path d="M123.229 0.654281H113.284V0.590168H107.753V18.1555L93.0859 0V8.99719L94.298 10.5811L108.13 27.3754L113.284 27.3787V6.31759H123.229C127.487 6.31759 130.984 9.80435 130.984 14.049C130.984 18.2936 127.488 21.7795 123.229 21.7795H118.76L114.972 27.4428H123.229C130.622 27.4428 136.665 21.4187 136.665 14.049C136.665 6.67926 130.622 0.654281 123.229 0.654281Z" fill="#202020"/>
<path d="M93.0859 27.3779H98.6152V24.7879L93.0859 18.075V27.3779Z" fill="#202020"/>
<path fill-rule="evenodd" clip-rule="evenodd" d="M70.4693 6.16555H85.4749L89.163 0.654297H70.4693H46.4492V6.16555H53.1213V26.7253H58.6506V6.16555H70.3687L70.4693 6.01513V6.16555Z" fill="#202020"/>
<path d="M83.7733 10.9348H70.4688V16.4469H83.7733V10.9348Z" fill="#202020"/>
<path fill-rule="evenodd" clip-rule="evenodd" d="M70.4688 21.2131V26.7252H89.1624L85.4743 21.2131H70.4688Z" fill="#202020"/>
<path d="M0 21.2131V26.7252H18.6937L15.0056 21.2131H0Z" fill="#202020"/>
<path d="M18.6937 0.654297H0V6.16555H15.0056L18.6937 0.654297Z" fill="#202020"/>
<path d="M26.948 0.654297H20.3089L27.1516 10.9337H0V16.4458H27.0816L20.2405 26.7244H26.8796L32.2695 18.6232L37.6594 26.7244H44.2977L26.948 0.654297ZM28.6078 14.1534V13.1218L28.9508 13.638L28.6078 14.1542V14.1534Z" fill="#202020"/>
<path d="M44.2289 0.654297H37.5907L35.5879 3.6635L38.9066 8.65116L44.2289 0.654297Z" fill="#202020"/>
</g>
</svg>
