<svg width="34" height="39" viewBox="0 0 34 39" fill="none" xmlns="http://www.w3.org/2000/svg">
<path d="M5.49695 37.647H27.8649" stroke="#041C28" stroke-width="2" stroke-linecap="round" stroke-linejoin="round"/>
<path d="M3.427 16.725H6.365C6.51257 16.7249 6.65734 16.6847 6.78387 16.6088C6.9104 16.5328 7.01394 16.424 7.08344 16.2938C7.15294 16.1636 7.1858 16.017 7.1785 15.8696C7.1712 15.7223 7.12402 15.5796 7.042 15.457C6.91386 15.2643 6.77111 15.0817 6.615 14.911C6.18194 14.4366 5.89389 13.848 5.78494 13.215C5.67599 12.582 5.75071 11.931 6.00026 11.3392C6.24981 10.7473 6.66373 10.2393 7.19301 9.87541C7.7223 9.5115 8.34478 9.30687 8.98675 9.28575C9.62873 9.26464 10.2633 9.42792 10.8154 9.75627C11.3674 10.0846 11.8138 10.5643 12.1017 11.1385C12.3896 11.7127 12.507 12.3573 12.4398 12.9961C12.3727 13.6349 12.124 14.2411 11.723 14.743C11.523 14.994 11.343 15.225 11.186 15.453L11.178 15.465C11.0972 15.5877 11.0512 15.7301 11.0448 15.877C11.0385 16.0239 11.0721 16.1697 11.1421 16.299C11.2121 16.4282 11.3158 16.5361 11.4422 16.6111C11.5686 16.6861 11.713 16.7255 11.86 16.725H16.725" stroke="#041C28" stroke-width="2" stroke-linecap="round" stroke-linejoin="round"/>
<path d="M16.725 30.023V27.086C16.7249 26.9384 16.6847 26.7936 16.6088 26.6671C16.5328 26.5406 16.424 26.437 16.2938 26.3675C16.1636 26.298 16.017 26.2652 15.8696 26.2725C15.7223 26.2798 15.5796 26.327 15.457 26.409C15.2643 26.5371 15.0817 26.6799 14.911 26.836C14.4366 27.269 13.848 27.5571 13.215 27.666C12.582 27.775 11.931 27.7003 11.3392 27.4507C10.7473 27.2012 10.2393 26.7872 9.87541 26.258C9.5115 25.7287 9.30687 25.1062 9.28575 24.4642C9.26464 23.8223 9.42792 23.1877 9.75627 22.6356C10.0846 22.0836 10.5643 21.6372 11.1385 21.3493C11.7127 21.0614 12.3573 20.944 12.9961 21.0111C13.6349 21.0783 14.2411 21.327 14.743 21.728C14.994 21.928 15.225 22.108 15.453 22.265L15.465 22.273C15.5877 22.3538 15.7301 22.3998 15.877 22.4061C16.0239 22.4125 16.1697 22.3788 16.299 22.3089C16.4282 22.2389 16.5361 22.1352 16.6111 22.0088C16.6861 21.8824 16.7255 21.738 16.725 21.591V16.725" stroke="#041C28" stroke-width="2" stroke-linecap="round" stroke-linejoin="round"/>
<path d="M16.725 1.37598V6.36698C16.7251 6.51454 16.7652 6.65931 16.8412 6.78584C16.9171 6.91237 17.026 7.01591 17.1561 7.08541C17.2863 7.15492 17.4329 7.18777 17.5803 7.18047C17.7277 7.17317 17.8703 7.126 17.993 7.04398C18.1856 6.91583 18.3682 6.77308 18.539 6.61698C19.0134 6.18407 19.602 5.89617 20.2349 5.78734C20.8679 5.67852 21.5188 5.75333 22.1106 6.00293C22.7023 6.25252 23.2102 6.66644 23.5741 7.1957C23.9379 7.72495 24.1425 8.34737 24.1636 8.98928C24.1847 9.63119 24.0214 10.2657 23.6932 10.8177C23.3649 11.3697 22.8853 11.8161 22.3112 12.1041C21.7371 12.392 21.0925 12.5094 20.4538 12.4424C19.815 12.3754 19.2088 12.1268 18.707 11.726C18.456 11.526 18.225 11.346 17.997 11.189L17.985 11.181C17.8622 11.1002 17.7198 11.0541 17.5729 11.0478C17.4261 11.0415 17.2803 11.0751 17.151 11.1451C17.0217 11.215 16.9138 11.3188 16.8388 11.4452C16.7638 11.5716 16.7245 11.716 16.725 11.863V13.652" stroke="#041C28" stroke-width="2" stroke-linecap="round" stroke-linejoin="round"/>
<path d="M32.0731 16.725H27.0851C26.9376 16.7252 26.7931 16.7654 26.6667 16.8413C26.5403 16.9172 26.4369 17.0259 26.3674 17.1559C26.2979 17.2859 26.265 17.4323 26.2722 17.5796C26.2793 17.7268 26.3263 17.8693 26.4081 17.992C26.5361 18.1847 26.6789 18.3673 26.8351 18.538C27.268 19.0124 27.5559 19.601 27.6647 20.2339C27.7735 20.8669 27.6987 21.5178 27.4491 22.1096C27.1995 22.7014 26.7856 23.2092 26.2563 23.5731C25.7271 23.9369 25.1047 24.1415 24.4627 24.1626C23.8208 24.1837 23.1863 24.0205 22.6343 23.6922C22.0823 23.3639 21.6359 22.8843 21.348 22.3102C21.06 21.7361 20.9426 21.0915 21.0096 20.4528C21.0766 19.814 21.3253 19.2079 21.7261 18.706C21.9261 18.455 22.106 18.224 22.263 17.995L22.271 17.984C22.3519 17.8612 22.3979 17.7188 22.4042 17.572C22.4105 17.4251 22.3769 17.2793 22.3069 17.15C22.237 17.0207 22.1333 16.9128 22.0069 16.8378C21.8804 16.7628 21.736 16.7235 21.5891 16.724H19.8" stroke="#041C28" stroke-width="2" stroke-linecap="round" stroke-linejoin="round"/>
<path d="M12.21 1H21.24C24.2131 1 27.0644 2.18105 29.1667 4.28333C31.269 6.38562 32.45 9.23692 32.45 12.21V21.239C32.45 24.2123 31.2688 27.0639 29.1664 29.1664C27.0639 31.2688 24.2123 32.45 21.239 32.45H12.21C9.23692 32.45 6.38562 31.269 4.28333 29.1667C2.18105 27.0644 1 24.2131 1 21.24L1 12.21C1 9.23692 2.18105 6.38562 4.28333 4.28333C6.38562 2.18105 9.23692 1 12.21 1Z" stroke="#041C28" stroke-width="2" stroke-linecap="round" stroke-linejoin="round"/>
</svg>
