<svg width="162" height="37" viewBox="0 0 162 37" fill="none" xmlns="http://www.w3.org/2000/svg">
<path d="M132.801 26.9628C132.777 27.1786 132.852 27.6219 133.083 28.1254C134.104 30.7604 135.896 32.2584 138.269 32.5097C140.2 32.714 141.972 32.1175 144.006 30.5898C144.454 30.2018 144.79 30.107 145.032 30.1325C145.554 30.1877 145.95 30.6656 145.886 31.2688C145.859 31.5275 145.647 31.984 145.369 32.3037C143.103 35.2444 139.214 36.6188 134.789 36.1491C127.993 35.429 123.72 30.4877 124.406 24.0682C125.101 17.5622 130.465 13.0328 136.739 13.6978C140.279 14.0727 143.053 15.892 144.645 18.8929C145.05 19.6764 145.409 20.4988 145.715 21.4463C145.958 22.2134 146.069 22.7037 146.04 22.9624C146.013 23.2203 145.834 23.376 145.583 23.4362L133.33 26.5821C132.954 26.6727 132.825 26.7469 132.801 26.9619L132.801 26.9628ZM132.949 23.6669L138.384 22.2818C138.724 22.1434 138.859 22.0272 138.873 21.8979C138.891 21.7256 138.831 21.153 138.622 20.4337C138.49 19.7654 138.233 19.1285 137.931 18.5303C137.268 17.5012 136.332 16.7481 135.406 16.65C133.717 16.4712 132.331 18.0236 132.069 20.4798C131.963 21.471 132.018 22.4787 132.222 23.2409C132.266 23.5944 132.417 23.6974 132.538 23.7097C132.618 23.718 132.744 23.6883 132.949 23.6669Z" fill="#202020"/>
<path d="M98.011 23.4946C97.4595 23.5795 96.8839 23.1354 96.7549 22.5874C96.6746 22.2471 96.3472 21.0961 96.2289 20.7245C95.3275 17.8908 92.9475 16.4382 90.4798 16.4382C87.3248 16.4382 85.3029 19.7744 85.3029 25.0602C85.3029 29.9998 87.4059 33.0328 90.8031 33.0328C91.6524 33.0328 92.4612 32.7724 93.2295 32.3827C94.5237 31.6461 95.0496 30.9968 96.1421 28.8298C96.5465 28.0932 96.8698 27.7463 97.3147 27.7463C97.9614 27.7463 98.3666 28.2233 98.3666 29.0028C98.3666 29.7823 97.8812 31.0825 97.1129 32.2962C95.4549 34.9823 92.7854 36.2389 88.8622 36.2389C82.0669 36.2389 77.2539 31.8628 77.2539 25.7103C77.2539 18.7774 82.3911 13.7949 89.4692 13.7949C92.2602 13.7949 94.1606 14.3148 96.8706 15.8309C97.7605 16.3509 98.4361 16.8337 98.4783 17.0875L98.8182 22.5001C98.8819 23.0497 98.5312 23.4139 98.0119 23.4938L98.011 23.4946Z" fill="#202020"/>
<path d="M113.873 22.8942L115.167 30C115.303 30.6205 115.38 31.0176 115.426 31.2854L116.301 35.5898H124.365L123.147 30.0511C123.143 30.033 123.14 30.0182 123.135 30L123.08 29.7438L122.668 27.8693C122.668 27.8693 122.673 27.8709 122.677 27.8709L120.951 19.8603C120.102 15.9169 118.242 14.0975 114.965 14.0975C112.862 14.0975 110.961 15.0072 109.627 16.6543L108.373 18.2577C108.252 18.3443 108.171 18.3879 108.13 18.3879C108.09 18.3879 108.049 18.3014 108.049 18.1276V4.43575C107.968 3.91583 107.847 3.78564 107.483 3.78564C107.361 3.78564 107.24 3.78564 107.078 3.82931L101.344 6.09274C100.759 6.32345 100.374 6.88704 100.374 7.5149V35.5906H108.055V30.665C108.051 30.4697 108.048 30.2546 108.048 30.0017V23.8055C108.048 21.5519 109.424 19.862 111.244 19.862C112.538 19.862 113.509 20.9884 113.873 22.895V22.8942Z" fill="#202020"/>
<path d="M75.5866 14.445C75.5056 13.968 75.384 13.7949 75.0202 13.7949C74.8986 13.7949 74.7365 13.7949 74.6158 13.8814L68.8592 16.1136C68.2695 16.3426 67.8809 16.9079 67.8809 17.539V35.5904H75.6048V30.8048C75.5924 30.5634 75.5866 30.2973 75.5866 30.0006V14.4459V14.445Z" fill="#202020"/>
<path d="M74.16 4.97449C71.8925 4.53037 68.8351 6.51365 67.7286 9.1421C67.655 9.33902 67.5814 9.53513 67.5219 9.83917C67.2217 11.361 67.9312 12.5006 69.3983 12.7881C70.7322 13.0493 72.6657 12.3745 74.0666 11.0677C75.0333 10.2034 75.7602 8.97566 75.9604 7.96136C76.2705 6.38841 75.5601 5.24887 74.16 4.97449Z" fill="#202020"/>
<path d="M66.0574 30.8957C66.0549 30.6617 66.0549 30.3716 66.0549 30.0009V4.43575C65.9738 3.91583 65.8928 3.78564 65.5289 3.78564C65.3668 3.78564 65.2056 3.78564 65.084 3.82931L59.3125 6.09686C58.7262 6.32757 58.3408 6.89116 58.3408 7.51985V35.5906H66.0574V30.8957Z" fill="#202020"/>
<path d="M30.647 35.5857L26.5476 16.6494C26.4972 16.4145 26.2888 16.2473 26.0473 16.2473H19.3761C19.0536 16.2473 18.8121 16.5406 18.8741 16.8554L21.757 31.4206C21.2202 31.9429 20.337 32.1671 19.0494 32.1671C12.9827 32.1671 8.93797 27.1409 8.93797 19.6445C8.93797 12.148 12.7007 6.81865 18.0802 6.81865C21.2351 6.81865 24.7068 8.51272 26.412 10.9788C27.9427 13.192 28.6771 13.9682 29.3246 13.9682C30.0929 13.9682 30.6188 13.4054 30.6188 12.5815C28.8193 7.59648 25.0731 5.59507 23.1851 4.87822C22.9007 4.7917 22.5335 4.678 22.0439 4.52227C20.304 4.04602 18.363 3.78564 16.3816 3.78564C6.75475 3.78564 0 10.5018 0 20.0779C0 29.654 6.47193 35.5898 17.756 35.5898H30.6478V35.5857H30.647Z" fill="#202020"/>
<path d="M56.0085 31.3C55.9274 31.3 55.8464 31.3 55.8059 31.3437C55.8059 31.3874 55.7662 31.4731 55.6851 31.6032C55.4825 31.9073 55.1592 32.0803 54.7953 32.0803C53.946 32.0803 53.1777 30.8674 52.6112 28.5711L50.3462 19.7744C49.3348 15.7881 46.6248 13.7949 42.2972 13.7949C39.9974 13.7949 38.1044 14.3173 36.4331 15.4082V17.764C37.1972 17.581 38.2491 17.1864 39.4036 17.1864C41.1832 17.1864 42.3162 18.2262 42.8413 20.5226L43.4698 23.0241C42.0541 22.5471 41.6091 22.4605 40.3149 22.4605C34.8147 22.4605 31.2959 25.1467 31.2959 29.2632C31.2959 33.3797 34.8147 36.196 39.7087 36.196C41.8523 36.196 44.401 35.4594 45.6142 34.5061C45.9375 34.2894 46.0996 34.1163 46.1807 34.0735C46.2617 34.0298 46.3419 33.987 46.3825 33.987C46.504 33.987 46.5445 34.0306 46.6256 34.1172L47.03 34.5506C48.0811 35.6341 49.4563 36.1532 51.236 36.1532C54.3099 36.1532 56.5344 34.5069 56.5344 32.2105C56.5344 31.5604 56.3723 31.3008 56.0085 31.3008V31.3ZM42.3377 32.8169C40.2347 32.8169 38.6568 31.0833 38.6568 28.7869C38.6568 26.6644 40.0726 25.1038 41.973 25.1038C42.7826 25.1038 43.3483 25.2777 44.1976 25.7976L45.0874 29.6101C45.1685 29.9141 45.209 30.2602 45.209 30.5634C45.209 31.8636 43.995 32.8169 42.3369 32.8169H42.3377Z" fill="#202020"/>
<path d="M152.161 3.50562H155.468C155.919 3.50562 156.266 3.63024 156.507 3.87949C156.749 4.12095 156.87 4.46366 156.87 4.90764V6.83542C156.87 7.27939 156.749 7.62601 156.507 7.87525C156.266 8.11671 155.919 8.23744 155.468 8.23744H154.848L157.243 11.6841H156.262L153.925 8.23744H152.979V11.6841H152.161V3.50562ZM152.979 4.26504V7.4897H155.444C155.849 7.4897 156.052 7.27939 156.052 6.85879V4.89595C156.052 4.47535 155.849 4.26504 155.444 4.26504H152.979Z" fill="#202020"/>
<circle cx="154.428" cy="7.3022" r="6.8022" stroke="#202020"/>
</svg>
