<svg width="62" height="62" viewBox="0 0 62 62" fill="none" xmlns="http://www.w3.org/2000/svg">
<path d="M59.3452 32.3026C58.2789 31.2092 56.9832 30.2103 55.5255 29.3329C54.0678 28.4555 52.4481 27.713 50.734 27.1326C46.8738 25.8367 41.043 25.9177 36.346 26.3092C40.3682 23.7174 45.1327 20.1942 47.5082 16.7655C51.8407 10.5021 53.0015 2.99672 49.9781 0.715427C49.3573 0.242969 48.5609 0 47.6431 0C46.7253 0 47.0358 0.0269943 46.7118 0.0809895C43.3376 0.620942 39.1804 3.82015 36.13 8.22076C33.768 11.6225 32.0539 17.3864 30.9607 22.165C29.8404 17.3999 28.1262 11.636 25.7507 8.24776C22.7004 3.87415 18.5298 0.701928 15.1285 0.175475C13.8058 -0.0270075 12.672 0.18898 11.8487 0.823424C10.4045 1.93033 9.86458 4.31961 10.364 7.38384C10.8634 10.4481 12.3076 13.8093 14.4131 16.833C16.8021 20.2617 21.5801 23.7714 25.6023 26.3497C20.8917 25.9717 15.0745 25.9042 11.2143 27.2271C4.16878 29.6299 -0.987151 34.9889 0.160108 38.7011C0.48404 39.754 1.33436 40.6449 2.5896 41.2793C5.63996 42.8317 10.7419 42.7642 15.5874 41.1038C19.4206 39.7945 24.0636 36.1768 27.6403 32.9776C25.8587 37.5267 23.9961 43.2772 24.0096 47.4888C24.0096 51.228 24.7655 54.8321 26.1017 57.6129C27.4514 60.4071 29.26 62 31.0551 62C32.8638 62 34.6589 60.3936 35.9816 57.5859C37.3043 54.8051 38.0196 51.201 38.0196 47.4483C38.0196 43.2232 36.1435 37.4862 34.3484 32.9371C37.9387 36.1228 42.5817 39.727 46.4149 41.0228C51.2334 42.6427 56.3353 42.6832 59.3992 41.1173C60.6679 40.4694 61.5182 39.565 61.8421 38.5121C62.3955 36.7302 61.4777 34.4624 59.3452 32.2891V32.3026Z" fill="#E5FF5E"/>
</svg>
