<svg width="63" height="63" viewBox="0 0 63 63" fill="none" xmlns="http://www.w3.org/2000/svg">
<path d="M63 31.5C63 26.7401 59.9362 22.6778 55.6687 21.2006C59.9362 19.7234 63 15.6611 63 10.9012C63 6.14136 58.1034 0 52.0988 0C46.0942 0 43.2766 3.06384 41.7994 7.33132C40.3222 3.06384 36.2599 0 31.5 0C26.7401 0 22.6778 3.06384 21.2006 7.33132C19.7234 3.06384 15.6611 0 10.9012 0C6.14135 0 0 4.89668 0 10.9012C0 16.9058 3.06384 19.7234 7.33132 21.2006C3.06384 22.6778 0 26.7401 0 31.5C0 36.2599 3.06384 40.3222 7.33132 41.7994C3.06384 43.2766 0 47.3389 0 52.0988C0 56.8587 4.89667 63 10.9012 63C16.9058 63 19.7234 59.9362 21.2006 55.6687C22.6778 59.9362 26.7401 63 31.5 63C36.2599 63 40.3222 59.9362 41.7994 55.6687C43.2766 59.9362 47.3389 63 52.0988 63C56.8587 63 63 58.1034 63 52.0988C63 46.0942 59.9362 43.2766 55.6687 41.7994C59.9362 40.3222 63 36.2599 63 31.5ZM52.0988 1.21734C57.4468 1.21734 61.7963 5.56687 61.7963 10.9149C61.7963 16.2629 57.4468 20.6125 52.0988 20.6125C46.7508 20.6125 42.4012 16.2629 42.4012 10.9149C42.4012 5.56687 46.7508 1.21734 52.0988 1.21734ZM21.8024 31.5C21.8024 26.152 26.152 21.8024 31.5 21.8024C36.848 21.8024 41.1976 26.152 41.1976 31.5C41.1976 36.848 36.848 41.1976 31.5 41.1976C26.152 41.1976 21.8024 36.848 21.8024 31.5ZM31.5 1.21734C36.848 1.21734 41.1976 5.56687 41.1976 10.9149C41.1976 16.2629 36.848 20.6125 31.5 20.6125C26.152 20.6125 21.8024 16.2629 21.8024 10.9149C21.8024 5.56687 26.152 1.21734 31.5 1.21734ZM1.21733 10.9149C1.21733 5.56687 5.56687 1.21734 10.9149 1.21734C16.2629 1.21734 20.6125 5.56687 20.6125 10.9149C20.6125 16.2629 16.2629 20.6125 10.9149 20.6125C5.56687 20.6125 1.21733 16.2629 1.21733 10.9149ZM1.21733 31.5C1.21733 26.152 5.56687 21.8024 10.9149 21.8024C16.2629 21.8024 20.6125 26.152 20.6125 31.5C20.6125 36.848 16.2629 41.1976 10.9149 41.1976C5.56687 41.1976 1.21733 36.848 1.21733 31.5ZM10.9012 61.7963C5.5532 61.7963 1.20365 57.4468 1.20365 52.0988C1.20365 46.7508 5.5532 42.4012 10.9012 42.4012C16.2492 42.4012 20.5988 46.7508 20.5988 52.0988C20.5988 57.4468 16.2492 61.7963 10.9012 61.7963ZM31.5 61.7963C26.152 61.7963 21.8024 57.4468 21.8024 52.0988C21.8024 46.7508 26.152 42.4012 31.5 42.4012C36.848 42.4012 41.1976 46.7508 41.1976 52.0988C41.1976 57.4468 36.848 61.7963 31.5 61.7963ZM61.7827 52.0988C61.7827 57.4468 57.4331 61.7963 52.0851 61.7963C46.7371 61.7963 42.3876 57.4468 42.3876 52.0988C42.3876 46.7508 46.7371 42.4012 52.0851 42.4012C57.4331 42.4012 61.7827 46.7508 61.7827 52.0988ZM52.0988 41.1976C46.7508 41.1976 42.4012 36.848 42.4012 31.5C42.4012 26.152 46.7508 21.8024 52.0988 21.8024C57.4468 21.8024 61.7963 26.152 61.7963 31.5C61.7963 36.848 57.4468 41.1976 52.0988 41.1976Z" fill="#E5FF5E"/>
</svg>
