<svg width="72" height="72" viewBox="0 0 72 72" fill="none" xmlns="http://www.w3.org/2000/svg">
<path d="M22.1028 22.0891C26.1693 18.0226 26.1692 11.4295 22.1027 7.36305C18.0363 3.29656 11.4432 3.29654 7.37672 7.36303C3.31023 11.4295 3.31021 18.0226 7.3767 22.0891C11.4432 26.1556 18.0363 26.1556 22.1028 22.0891Z" fill="#E5FF5E"/>
<path d="M45.6417 16.2626C46.5611 10.5857 42.7045 5.23825 37.0275 4.31879C31.3506 3.39934 26.0032 7.25604 25.0838 12.9329C24.1643 18.6098 28.021 23.9573 33.6979 24.8767C39.3748 25.7962 44.7222 21.9395 45.6417 16.2626Z" fill="#E5FF5E"/>
<path d="M63.7267 22.1028C67.7932 18.0363 67.7933 11.4432 63.7268 7.37672C59.6603 3.31023 53.0672 3.31026 49.0007 7.37675C44.9342 11.4432 44.9342 18.0363 49.0007 22.1028C53.0672 26.1693 59.6603 26.1693 63.7267 22.1028Z" fill="#E5FF5E"/>
<path d="M14.7323 45.9576C20.4831 45.9576 25.1451 41.2956 25.1451 35.5447C25.1451 29.7938 20.4831 25.1318 14.7323 25.1318C8.98137 25.1318 4.31934 29.7938 4.31934 35.5447C4.31934 41.2956 8.98137 45.9576 14.7323 45.9576Z" fill="#E5FF5E"/>
<path d="M35.5448 45.9576C41.2956 45.9576 45.9577 41.2956 45.9577 35.5447C45.9577 29.7938 41.2956 25.1318 35.5448 25.1318C29.7939 25.1318 25.1318 29.7938 25.1318 35.5447C25.1318 41.2956 29.7939 45.9576 35.5448 45.9576Z" fill="#E5FF5E"/>
<path d="M56.3562 45.9576C62.1071 45.9576 66.7691 41.2956 66.7691 35.5447C66.7691 29.7938 62.1071 25.1318 56.3562 25.1318C50.6053 25.1318 45.9434 29.7938 45.9434 35.5447C45.9434 41.2956 50.6053 45.9576 56.3562 45.9576Z" fill="#E5FF5E"/>
<path d="M22.0891 63.7131C26.1556 59.6466 26.1556 53.0536 22.0891 48.9871C18.0226 44.9206 11.4295 44.9206 7.36305 48.9871C3.29656 53.0535 3.29654 59.6466 7.36302 63.7131C11.4295 67.7796 18.0226 67.7796 22.0891 63.7131Z" fill="#E5FF5E"/>
<path d="M42.9016 63.7268C46.9681 59.6603 46.9681 53.0672 42.9016 49.0007C38.8351 44.9342 32.242 44.9342 28.1755 49.0007C24.1091 53.0672 24.109 59.6603 28.1755 63.7268C32.242 67.7933 38.8351 67.7933 42.9016 63.7268Z" fill="#E5FF5E"/>
<path d="M63.7131 63.7268C67.7796 59.6603 67.7796 53.0672 63.7131 49.0007C59.6466 44.9343 53.0535 44.9343 48.987 49.0008C44.9205 53.0673 44.9206 59.6603 48.987 63.7268C53.0535 67.7933 59.6466 67.7933 63.7131 63.7268Z" fill="#E5FF5E"/>
</svg>
