<svg width="64" height="63" viewBox="0 0 64 63" fill="none" xmlns="http://www.w3.org/2000/svg">
<path d="M60.0563 25.3894C61.9197 22.464 61.8231 18.1032 59.5042 14.3303C57.1852 10.5573 53.3066 8.47947 49.8282 8.79389C49.3589 5.36268 46.4602 2.08185 42.2226 0.673827C37.9989 -0.734196 33.6785 0.140692 31.2216 2.58764C28.6404 0.263723 24.2786 -0.406109 20.1377 1.20697C15.9829 2.82004 13.2499 6.23757 12.9462 9.68244C9.45404 9.54574 5.68579 11.8013 3.5601 15.6836C1.42062 19.5659 1.54485 23.9267 3.5601 26.7564C0.79948 28.8753 -0.622245 33.0037 0.261155 37.3371C1.14455 41.6705 4.07082 44.9377 7.43878 45.8126C6.69341 49.1891 8.29458 53.2628 11.773 56.0105C15.2513 58.7582 19.6131 59.4007 22.774 57.938C24.389 61.0001 28.2539 63.1053 32.7123 62.9959C37.1707 62.8866 40.9252 60.6037 42.3883 57.4595C45.6182 58.7719 49.9386 57.9243 53.2789 54.9989C56.6193 52.0735 58.0134 47.9314 57.1024 44.5959C60.429 43.5433 63.1896 40.1395 63.8521 35.7787C64.5147 31.4179 62.8997 27.3579 60.0287 25.3757L60.0563 25.3894ZM42.126 42.4634C40.3868 43.9808 39.1722 45.8262 38.5372 47.7264C36.7704 46.7695 34.6171 46.2227 32.2982 46.2774C29.9793 46.332 27.8536 46.9745 26.142 48.0271C25.4104 46.168 24.113 44.3772 22.3047 42.9555C20.4965 41.5202 18.4399 40.6589 16.4522 40.3719C17.101 38.4854 17.2666 36.2845 16.8111 34.0426C16.3556 31.787 15.348 29.8322 14.0091 28.3422C15.7345 27.3032 17.2804 25.7312 18.3847 23.7217C19.4889 21.7121 19.9858 19.5659 19.9306 17.5701C21.9183 17.8708 24.1268 17.6521 26.2938 16.8182C28.4471 15.9844 30.2277 14.6584 31.47 13.0863C32.7951 14.59 34.6309 15.8203 36.8256 16.5585C39.0203 17.283 41.2426 17.4061 43.2165 16.996C43.2579 18.9918 43.8652 21.1107 45.0661 23.0655C46.267 25.0203 47.8957 26.524 49.6763 27.4673C48.4202 29.0257 47.5092 31.0352 47.1504 33.3044C46.8053 35.5737 47.0813 37.7609 47.8129 39.6063C45.8391 39.9891 43.8376 40.946 42.0984 42.4634H42.126Z" fill="#E5FF5E"/>
</svg>
