<svg width="64" height="64" viewBox="0 0 64 64" fill="none" xmlns="http://www.w3.org/2000/svg">
<path d="M29.1615 0.0136719H17.1195C7.67053 0.0136719 0 7.67061 0 17.1332V29.1752C0 29.8812 0.570218 30.4514 1.27618 30.4514H8.43079C20.5814 30.4514 30.4241 20.5951 30.4241 8.45802V1.3034C30.4241 0.597446 29.8539 0.0272447 29.148 0.0272447L29.1615 0.0136719Z" fill="#E5FF5E"/>
<path d="M8.44443 32.7866H1.28982C0.583856 32.7866 0.0136719 33.3568 0.0136719 34.0628V46.1048C0.0136719 55.5538 7.67059 63.2243 17.1332 63.2243H29.1752C29.8812 63.2243 30.4514 62.6541 30.4514 61.9482V54.7935C30.4514 42.6429 20.5951 32.8002 8.45802 32.8002L8.44443 32.7866Z" fill="#E5FF5E"/>
<path d="M46.1043 0.0135728H34.0623C33.3564 0.0135728 32.7861 0.583774 32.7861 1.28973V8.44435C32.7861 20.595 42.6424 30.4377 54.7795 30.4377H61.9341C62.64 30.4377 63.2103 29.8675 63.2103 29.1615V17.1195C63.2103 7.67051 55.5533 0 46.0907 0L46.1043 0.0135728Z" fill="#E5FF5E"/>
<path d="M61.9341 32.7865H54.7795C42.6288 32.7865 32.7861 42.6428 32.7861 54.7798V61.9345C32.7861 62.6405 33.3564 63.2106 34.0623 63.2106H46.1043C55.5533 63.2106 63.2238 55.5537 63.2238 46.0911V34.0491C63.2238 33.3431 62.6536 32.7729 61.9477 32.7729L61.9341 32.7865Z" fill="#E5FF5E"/>
</svg>
