<svg width="33" height="39" viewBox="0 0 33 39" fill="none" xmlns="http://www.w3.org/2000/svg">
<path d="M21.452 6.83496C21.4782 6.54553 21.4437 6.25383 21.3509 5.97844C21.2581 5.70305 21.1089 5.45002 20.9129 5.23548C20.7169 5.02093 20.4783 4.84958 20.2124 4.73235C19.9465 4.61511 19.6591 4.55457 19.3685 4.55457C19.0779 4.55457 18.7905 4.61511 18.5246 4.73235C18.2586 4.84958 18.0201 5.02093 17.8241 5.23548C17.628 5.45002 17.4789 5.70305 17.386 5.97844C17.2932 6.25383 17.2588 6.54553 17.285 6.83496C17.285 8.09296 18.218 9.77296 19.368 9.77296C20.518 9.77296 21.452 8.09396 21.452 6.83496Z" stroke="#041C28" stroke-width="2" stroke-linecap="round" stroke-linejoin="round"/>
<path d="M23.249 13.1551L22.928 12.4801C22.6859 11.9713 22.2668 11.5681 21.749 11.3461L20.949 11.0031" stroke="#041C28" stroke-width="2" stroke-linecap="round" stroke-linejoin="round"/>
<path d="M15.49 13.155L15.811 12.48C16.0532 11.9716 16.4724 11.5689 16.99 11.347L17.79 11.004" stroke="#041C28" stroke-width="2" stroke-linecap="round" stroke-linejoin="round"/>
<path d="M27.438 32.269C27.438 32.7639 27.2414 33.2385 26.8915 33.5885C26.5415 33.9384 26.0669 34.135 25.572 34.135H2.866C2.62092 34.1351 2.37821 34.087 2.15176 33.9932C1.9253 33.8995 1.71955 33.7621 1.54625 33.5888C1.37295 33.4155 1.2355 33.2097 1.14177 32.9832C1.04804 32.7568 0.999869 32.5141 1 32.269V11.688C0.999961 11.2299 1.0903 10.7763 1.26584 10.3531C1.44139 9.92994 1.69868 9.54557 2.023 9.22201L9.702 1.54301C9.87575 1.37019 10.0818 1.23329 10.3085 1.14012C10.5352 1.04695 10.7779 0.99934 11.023 1.00001H25.572C26.0667 1.00001 26.5412 1.19647 26.8911 1.54619C27.241 1.89592 27.4377 2.37029 27.438 2.86501V32.269Z" stroke="#041C28" stroke-width="2" stroke-linecap="round" stroke-linejoin="round"/>
<path d="M5.67603 10.2449H10.246V5.67493" stroke="#041C28" stroke-width="2" stroke-linecap="round" stroke-linejoin="round"/>
<path d="M5.62805 17.7159H22.2921" stroke="#041C28" stroke-width="2" stroke-linecap="round" stroke-linejoin="round"/>
<path d="M5.62805 21.7159H19.5551" stroke="#041C28" stroke-width="2" stroke-linecap="round" stroke-linejoin="round"/>
<path d="M5.62805 25.717H22.2921" stroke="#041C28" stroke-width="2" stroke-linecap="round" stroke-linejoin="round"/>
<path d="M5.62805 29.717H12.7141" stroke="#041C28" stroke-width="2" stroke-linecap="round" stroke-linejoin="round"/>
<path d="M19.991 29.717H22.291" stroke="#041C28" stroke-width="2" stroke-linecap="round" stroke-linejoin="round"/>
<path d="M5.67603 13.942H12.044" stroke="#041C28" stroke-width="2" stroke-linecap="round" stroke-linejoin="round"/>
<path d="M31.349 6.76697V31.98C31.349 33.5214 30.7369 34.9998 29.6472 36.09C28.5575 37.1803 27.0795 37.7932 25.538 37.794H4.98901" stroke="#041C28" stroke-width="2" stroke-linecap="round" stroke-linejoin="round"/>
</svg>
