<svg width="192" height="30" viewBox="0 0 192 30" fill="none" xmlns="http://www.w3.org/2000/svg">
<g opacity="0.3">
<path d="M152.198 29.6381C151.755 28.9426 151.36 27.8677 151.012 26.4135C150.696 24.9592 150.538 23.505 150.538 22.0507V10.6697H167.515C168.558 11.5233 169.269 12.5507 169.649 13.7521C170.06 14.9534 170.265 16.2021 170.265 17.4983C170.265 18.668 170.028 19.8852 169.554 21.1497C169.08 22.4143 168.4 23.3627 167.515 23.995H159.026C159.279 25.1331 159.627 26.1606 160.07 27.0774C160.544 27.9942 161.081 28.8162 161.682 29.5433L161.635 29.6381H152.198ZM158.789 22.525C159.833 22.0507 160.655 21.3869 161.255 20.5333C161.856 19.6481 162.156 18.5732 162.156 17.3086C162.156 16.3286 161.856 15.3486 161.255 14.3685C160.686 13.3569 159.817 12.6456 158.647 12.2346V20.391C158.647 21.1497 158.695 21.8611 158.789 22.525Z" fill="#202020"/>
<path d="M127.81 29.6381V10.6697H145.166C146.019 11.6497 146.683 12.9933 147.157 14.7005C147.663 16.376 147.916 18.1938 147.916 20.1539V29.6381H139.807V20.6755C139.807 18.5258 139.459 16.787 138.764 15.4592C138.1 14.1314 137.152 13.0723 135.919 12.282V29.6381H127.81Z" fill="#202020"/>
<path d="M116.557 8.86888V5.0752H124.761V8.86888H116.557ZM116.557 29.6393V10.6709H124.761V29.6393H116.557Z" fill="#202020"/>
<path d="M103.534 29.6381V18.2571C103.534 16.5183 103.74 15.0798 104.151 13.9417C104.593 12.772 105.305 11.6813 106.285 10.6697H115.816L115.864 10.7645C114.315 12.0607 113.224 13.3885 112.592 14.7479C111.991 16.1073 111.691 17.8303 111.691 19.9168V29.6381H103.534Z" fill="#202020"/>
<path d="M83.7123 29.6381C82.6691 28.7845 81.942 27.7571 81.531 26.5558C81.1516 25.3228 80.9619 24.1531 80.9619 23.0466C80.9619 21.6872 81.199 20.3752 81.6732 19.1106C82.1474 17.8461 82.8271 16.9135 83.7123 16.3128H92.2007C91.9478 15.2063 91.6001 14.1946 91.1575 13.2778C90.7149 12.361 90.1932 11.5233 89.5926 10.7645V10.6697H99.0294C99.472 11.3652 99.8513 12.4401 100.167 13.8943C100.515 15.3169 100.689 16.7712 100.689 18.2571V29.6381H83.7123ZM92.5801 28.0732V19.9168C92.5801 19.569 92.5643 19.2529 92.5327 18.9684C92.5327 18.6522 92.5169 18.3519 92.4853 18.0674C91.6001 18.4784 90.8097 19.0948 90.1142 19.9168C89.4187 20.7071 89.0709 21.703 89.0709 22.9043C89.0709 23.9476 89.3555 24.9592 89.9245 25.9393C90.5252 26.9193 91.4104 27.6306 92.5801 28.0732Z" fill="#202020"/>
<path d="M58.8086 29.6384V2.4187H66.9176V10.67H76.1647C77.0183 11.65 77.6822 12.9936 78.1564 14.7008C78.6622 16.3763 78.9151 18.1941 78.9151 20.1542V29.6384H70.8061V20.6758C70.8061 18.5261 70.4584 16.7873 69.7629 15.4595C69.099 14.1317 68.1506 13.0726 66.9176 12.2823V29.6384H58.8086Z" fill="#202020"/>
<path d="M46.9381 29.639C46.4955 28.9435 46.1003 27.8686 45.7525 26.4144C45.4364 24.9601 45.2783 23.5059 45.2783 22.0517V5.92847H53.3873V10.6706H56.2326V16.3611H53.3873V20.3919C53.3873 22.4784 53.6719 24.2488 54.2409 25.7031C54.8416 27.1257 55.5529 28.4061 56.3749 29.5442V29.639H46.9381Z" fill="#202020"/>
<path d="M25.5014 29.6381C24.4581 28.7845 23.731 27.7571 23.32 26.5558C22.9407 25.3228 22.751 24.1531 22.751 23.0466C22.751 21.6872 22.9881 20.3752 23.4623 19.1106C23.9365 17.8461 24.6162 16.9135 25.5014 16.3128H33.9898C33.7369 15.2063 33.3891 14.1946 32.9465 13.2778C32.5039 12.361 31.9823 11.5233 31.3816 10.7645V10.6697H40.8184C41.261 11.3652 41.6404 12.4401 41.9565 13.8943C42.3043 15.3169 42.4782 16.7712 42.4782 18.2571V29.6381H25.5014ZM34.3692 28.0732V19.9168C34.3692 19.569 34.3533 19.2529 34.3217 18.9684C34.3217 18.6522 34.3059 18.3519 34.2743 18.0674C33.3891 18.4784 32.5988 19.0948 31.9033 19.9168C31.2077 20.7071 30.86 21.703 30.86 22.9043C30.86 23.9476 31.1445 24.9592 31.7136 25.9393C32.3142 26.9193 33.1994 27.6306 34.3692 28.0732Z" fill="#202020"/>
<path d="M0 29.6387V3.36743H8.06159V15.0805C9.57907 14.8592 10.6065 14.2111 11.144 13.1362C11.6814 12.0613 11.9501 10.8125 11.9501 9.38991V3.36743H20.2014V9.24765C20.2014 10.449 19.9485 11.6029 19.4427 12.7094C18.9368 13.7843 18.0833 14.622 16.8819 15.2227V15.3176C18.2729 15.855 19.2688 16.8192 19.8695 18.2102C20.4701 19.5697 20.8337 21.182 20.9601 23.0472L21.3869 29.6387H13.0408L12.614 23.0472C12.5192 21.5613 12.124 20.281 11.4285 19.2061C10.733 18.0996 9.61068 17.4831 8.06159 17.3567V29.6387H0Z" fill="#202020"/>
<path d="M182.037 3.55664H185.392C185.851 3.55664 186.202 3.6831 186.447 3.93601C186.692 4.18102 186.815 4.52877 186.815 4.97927V6.9354C186.815 7.3859 186.692 7.7376 186.447 7.99052C186.202 8.23553 185.851 8.35803 185.392 8.35803H184.764L187.194 11.8553H186.198L183.827 8.35803H182.867V11.8553H182.037V3.55664ZM182.867 4.32723V7.59929H185.368C185.779 7.59929 185.985 7.3859 185.985 6.95911V4.96742C185.985 4.54063 185.779 4.32723 185.368 4.32723H182.867Z" fill="#202020"/>
<circle cx="184.337" cy="7.40955" r="6.90955" stroke="#202020"/>
</g>
</svg>
