<svg width="156" height="29" viewBox="0 0 156 29" fill="none" xmlns="http://www.w3.org/2000/svg">
<g opacity="0.3">
<path d="M59.4174 22.3481H55.0276C54.5526 24.3556 51.9951 24.288 51.3264 24.288C50.1575 24.288 49.2102 23.8412 48.4851 22.9485C47.9686 22.327 47.6425 21.3825 47.5066 20.1141H59.3404L62.449 16.9602C62.2725 15.2538 61.8892 13.7976 61.2905 12.6003C60.4418 10.9053 59.2055 9.61053 57.5815 8.71694C55.9576 7.82336 53.7436 7.37744 50.9388 7.37744C47.4815 7.37744 44.7727 8.3746 42.8105 10.3672C40.8483 12.3606 39.8672 14.9685 39.8672 18.1909C39.8672 20.4564 40.356 22.4262 41.3345 24.1019C42.3122 25.7784 43.545 27.0012 45.034 27.7719C46.5221 28.5417 48.5647 28.9271 51.1602 28.9271C54.1494 28.9271 56.4438 28.4768 58.0427 27.577C59.0895 26.988 60.4539 25.882 61.4177 24.3766L59.4174 22.3472V22.3481ZM48.3926 13.5518C49.1055 12.5555 50.0597 12.0569 51.2528 12.0569C52.2858 12.0569 53.119 12.387 53.7532 13.0471C54.3865 13.7071 54.7775 14.8009 54.9246 16.3282H47.5248C47.6477 15.0984 47.9366 14.1733 48.3917 13.5518H48.3926Z" fill="#202020"/>
<path d="M132.644 18.2102C132.644 15.0651 133.653 12.473 135.671 10.4348C137.688 8.39655 140.413 7.37744 143.845 7.37744C147.768 7.37744 150.733 8.57474 152.739 10.9693C154.35 12.8978 155.156 15.2731 155.156 18.0943C155.156 21.2658 154.157 23.8631 152.157 25.889C150.158 27.915 147.394 28.9279 143.863 28.9279C140.714 28.9279 138.168 28.087 136.224 26.4043C133.837 24.3204 132.644 21.5897 132.644 18.2111L132.644 18.2102ZM140.173 18.1909C140.173 20.029 140.527 21.3878 141.234 22.2673C141.941 23.1477 142.83 23.5875 143.9 23.5875C144.97 23.5875 145.871 23.1539 146.567 22.2866C147.261 21.4194 147.609 20.0281 147.609 18.1128C147.609 16.3273 147.259 14.9975 146.557 14.1232C145.856 13.2498 144.989 12.8127 143.956 12.8127C142.861 12.8127 141.957 13.256 141.243 14.1425C140.53 15.0291 140.173 16.3782 140.173 18.1909Z" fill="#202020"/>
<path d="M38.2292 23.8888L32.0191 1.01636H23.8224L19.096 18.2955L14.3523 1.01636H6.15568L0 23.8546V28.4612H6.65661L10.9522 13.1175L15.1457 28.4612H23.0568L27.2399 13.0964L31.532 28.4612H38.2292V23.8888Z" fill="#202020"/>
<path d="M87.6475 2.87738V5.37819H95.158V0H90.4835L87.6475 2.87738Z" fill="#202020"/>
<path d="M95.158 26.5524V7.84326H87.6475V28.4615H93.2763L95.158 26.5524Z" fill="#202020"/>
<path d="M128.624 28.4618L130.37 26.6896V15.5119C130.37 12.7161 129.78 10.6621 128.601 9.34807C127.422 8.03402 125.782 7.37744 123.682 7.37744C122.257 7.37744 121.059 7.61971 120.089 8.106C119.118 8.59142 118.043 9.50695 116.864 10.8526C116.285 9.70094 115.54 8.83369 114.629 8.25084C113.717 7.66887 112.479 7.37744 110.914 7.37744C109.461 7.37744 108.219 7.64341 107.191 8.17359C106.162 8.70465 105.143 9.59736 104.132 10.8526V7.84354H100.13L97.1211 10.8965V28.461H104.649V17.9389C104.649 16.373 104.927 15.2468 105.482 14.5604C106.038 13.8748 106.747 13.5316 107.611 13.5316C108.142 13.5316 108.604 13.6905 109 14.0074C109.394 14.3242 109.672 14.7421 109.833 15.2591C109.932 15.583 109.981 16.1983 109.981 17.1033V28.461H117.509V17.8222C117.509 16.3344 117.779 15.2538 118.318 14.5805C118.857 13.9073 119.568 13.5711 120.451 13.5711C121.199 13.5711 121.823 13.9266 122.327 14.6394C122.67 15.0923 122.842 15.7849 122.842 16.7162V28.4618H128.623H128.624Z" fill="#202020"/>
<path d="M85.683 24.4271L79.6977 17.6656L84.7434 12.204V7.84229H80.4876L74.4721 13.5891L68.9731 7.84229H64.2008V12.2935L69.1989 17.6656L63.2422 24.4289V28.4606H67.8293L74.4721 21.821L80.4876 28.4606H85.683V24.4271Z" fill="#202020"/>
</g>
</svg>
