<svg width="69" height="69" viewBox="0 0 69 69" fill="none" xmlns="http://www.w3.org/2000/svg">
<path d="M30.4346 29.0336C31.2075 29.0336 31.8339 29.6601 31.834 30.433C31.834 31.206 31.2076 31.8324 30.4346 31.8324C29.6617 31.8323 29.0352 31.2059 29.0352 30.433C29.0353 29.6602 29.6618 29.0337 30.4346 29.0336Z" fill="black" stroke="white"/>
<path d="M38.5674 37.167C39.3403 37.167 39.9667 37.7935 39.9668 38.5664C39.9668 39.3394 39.3404 39.9658 38.5674 39.9658C37.7945 39.9657 37.168 39.3393 37.168 38.5664C37.1681 37.7936 37.7946 37.1671 38.5674 37.167Z" fill="black" stroke="white"/>
<path d="M37.9033 29.0593C38.4646 28.498 39.3783 28.4978 39.9424 29.0603C40.4697 29.5864 40.5035 30.4212 40.041 30.988L39.9414 31.0974L31.1055 39.9382C30.8235 40.2202 30.4537 40.3611 30.085 40.3611C29.7169 40.361 29.3497 40.2205 29.0674 39.9382L29.0664 39.9373C28.5391 39.4111 28.5053 38.5764 28.9678 38.0095L29.0674 37.9001L37.9033 29.0593Z" fill="black" stroke="white"/>
<path d="M34.502 19.1968C42.9391 19.1968 49.8054 26.0624 49.8057 34.4995C49.8057 42.9368 42.9392 49.8032 34.502 49.8032C26.0649 49.803 19.1992 42.9366 19.1992 34.4995C19.1994 26.0626 26.065 19.197 34.502 19.1968ZM34.502 22.0806C27.6519 22.0808 22.0803 27.6492 22.0801 34.4995C22.0801 41.3501 27.6539 46.9192 34.502 46.9194C41.3502 46.9194 46.9238 41.3502 46.9238 34.4995C46.9236 27.649 41.3522 22.0806 34.502 22.0806Z" fill="black" stroke="white"/>
<path d="M30.9229 4.02649C33.0643 2.48523 35.943 2.48552 38.082 4.02649L42.3623 7.1095L42.3633 7.11047C42.9145 7.50422 43.5652 7.71616 44.2451 7.71887L49.5176 7.74524C52.1596 7.75721 54.488 9.44911 55.3135 11.9572L56.958 16.962L56.959 16.963C57.1729 17.6096 57.5783 18.1658 58.125 18.5675H58.126L62.376 21.6749C64.5109 23.2359 65.4018 25.9761 64.5928 28.4962L62.9775 33.506V33.507C62.7691 34.158 62.7691 34.8442 62.9775 35.4952V35.4962L64.5879 40.505C65.3994 43.0252 64.5092 45.7661 62.374 47.3273L58.124 50.4347H58.123C57.5746 50.836 57.1681 51.3897 56.9561 52.0382L55.3105 57.045C54.4851 59.5528 52.1554 61.2449 49.5156 61.257L44.2432 61.2804C43.5641 61.2831 42.9108 61.4954 42.3623 61.8907L38.082 64.9738C37.0119 65.745 35.7564 66.128 34.502 66.1281C33.2474 66.1281 31.9914 65.7456 30.9238 64.9728L30.9229 64.9718L26.6436 61.8888L26.6416 61.8868L26.4307 61.7482C25.9274 61.4436 25.3549 61.2808 24.7598 61.2784L19.4873 61.255C16.928 61.2433 14.6629 59.6549 13.7734 57.2755L13.6924 57.0421L12.0469 52.0382V52.0372L11.958 51.799C11.7297 51.2539 11.3592 50.7843 10.8809 50.4327L10.8799 50.4318L6.62988 47.3253C4.49455 45.7642 3.60253 43.0226 4.41211 40.5021L6.02734 35.4943L6.02832 35.4933C6.23682 34.8422 6.23688 34.1551 6.02832 33.504H6.02734L4.41504 28.4943C3.6037 25.9741 4.49462 23.234 6.62988 21.673L10.8799 18.5656C11.4295 18.1634 11.8331 17.6095 12.0469 16.963V16.962L13.6924 11.9552C14.5179 9.44702 16.8457 7.75248 19.4873 7.74036L24.7617 7.71887C25.441 7.71628 26.0949 7.50505 26.6436 7.1095L30.9229 4.02649ZM36.3975 6.36243C35.2618 5.54762 33.7376 5.54704 32.6035 6.36243H32.6025L28.3252 9.44641C27.2844 10.1961 26.0574 10.5947 24.7705 10.6007L19.498 10.6241C18.1017 10.6295 16.8657 11.5266 16.4297 12.8546L14.7842 17.8595C14.4086 19.0069 13.7146 19.9995 12.7715 20.7452L12.5791 20.8917L8.33105 23.9991C7.27056 24.7756 6.78981 26.1015 7.08887 27.3644L7.15918 27.6154L8.77148 32.6241C9.14167 33.7759 9.16469 34.9873 8.84082 36.1466L8.77148 36.3781L7.15918 41.3868C6.75555 42.6364 7.14404 43.9945 8.12695 44.84L8.33203 45.0021L12.5791 48.1066C13.618 48.8663 14.3792 49.9138 14.7822 51.1388L16.4268 56.1427L16.4277 56.1437C16.8658 57.4707 18.0991 58.3678 19.498 58.3732V58.3741L24.7705 58.3976C26.0553 58.4036 27.2845 58.8023 28.3252 59.5519L32.6055 62.6349V62.6359C33.7411 63.4507 35.2653 63.4504 36.3994 62.6349H36.4004L40.6787 59.5519L40.6777 59.5509C41.7184 58.8013 42.9456 58.4037 44.2324 58.3976L49.5049 58.3741L49.5039 58.3732C50.9025 58.3681 52.1401 57.4713 52.5762 56.1427L54.2207 51.1388L54.2217 51.1378C54.5973 49.9905 55.2903 48.9978 56.2334 48.2521L56.4258 48.1066L60.6738 44.9991C61.7329 44.2246 62.2129 42.8967 61.916 41.6359L61.8467 41.3849L60.2334 36.3761C59.8386 35.1479 59.8386 33.8533 60.2314 32.6222L61.8438 27.6124C62.274 26.2797 61.8027 24.8241 60.6709 23.9982L56.4238 20.8917C55.385 20.132 54.6237 19.0844 54.2207 17.8595L52.5762 12.8546L52.5752 12.8536C52.1369 11.5268 50.9038 10.6295 49.5049 10.6241L44.2324 10.6007C42.9476 10.5946 41.7184 10.196 40.6777 9.44641L36.3984 6.36243H36.3975Z" fill="black" stroke="white"/>
</svg>
