<svg width="69" height="69" viewBox="0 0 69 69" fill="none" xmlns="http://www.w3.org/2000/svg">
<path d="M17.3154 11.3265H60.3115C63.483 11.3267 66.0643 13.9079 66.0645 17.0795V43.2972C66.0645 46.4688 63.4831 49.05 60.3115 49.0502H57.4395V51.9222C57.4395 55.0938 54.8581 57.675 51.6865 57.6752H8.69043C5.51882 57.6751 2.9375 55.0939 2.9375 51.9222V25.7094L2.94531 25.4135C3.09971 22.3785 5.61793 19.9555 8.69043 19.9554H11.5625V17.0795C11.5626 13.9079 14.1439 11.3266 17.3154 11.3265ZM5.81836 51.9203C5.81836 53.5031 7.10769 54.7923 8.69043 54.7924H51.6865C53.2689 54.7922 54.5586 53.5055 54.5586 51.9203V33.851H5.81836V51.9203ZM17.3154 14.2074C15.7328 14.2075 14.4435 15.4968 14.4434 17.0795V19.9554H51.6865C54.8581 19.9556 57.4395 22.5377 57.4395 25.7094V46.1713H60.3115C61.8942 46.1711 63.1836 44.8819 63.1836 43.2992V17.0795C63.1835 15.4968 61.8942 14.2075 60.3115 14.2074H17.3154ZM8.69043 22.8353C7.10782 22.8354 5.81858 24.1238 5.81836 25.7064V30.9681H54.5586V25.7064C54.5584 24.1239 53.2691 22.8355 51.6865 22.8353H8.69043Z" fill="black" stroke="white"/>
<path d="M21.8071 45.5637H13.0031C11.9315 45.5637 11.0625 46.4327 11.0625 47.5043C11.0625 48.576 11.9315 49.445 13.0031 49.445H21.8071C22.8787 49.445 23.7477 48.576 23.7477 47.5043C23.7477 46.4327 22.8787 45.5637 21.8071 45.5637Z" fill="black"/>
</svg>
