<svg width="134" height="45" viewBox="0 0 134 45" fill="none" xmlns="http://www.w3.org/2000/svg">
<g opacity="0.3">
<path d="M63.7665 12.2191H71.6949V12.2637C70.3513 12.9374 68.6489 14.7791 67.619 17.385L60.5421 35.5782H60.318L54.6743 20.6194L48.8516 35.5782H48.6274L40.9683 17.5645C39.8482 14.8243 38.8183 12.7133 37.0264 12.2637V12.2191H48.9855V12.2637C46.2976 12.8031 46.746 14.8696 48 17.8791L51.8969 26.9531L54.5397 20.2595L53.5098 17.5639C52.3001 14.4193 51.8074 12.982 50.2396 12.263V12.2184H61.706V12.263C59.8246 12.847 59.5116 14.8237 60.4519 17.6084L63.5875 26.997L65.9166 21.0224C67.6634 16.4851 67.0811 12.7565 63.7665 12.2623V12.2178V12.2191Z" fill="#202020"/>
<path d="M94.4605 29.8909V24.9161V2.03906H94.3259L84.7402 5.81218V5.85674C86.4426 6.21657 87.7862 7.60862 87.7862 10.843V24.9154V30.7712C87.7862 33.3312 87.8024 33.6789 87.8024 35.0844L91.8177 35.127H97.5523C96.4847 34.3904 94.4605 32.4495 94.4605 29.8895V29.8909Z" fill="#202020"/>
<path d="M106.685 29.8909V24.9161V2.03906H106.55L96.9648 5.81218V5.85674C98.6672 6.21657 100.011 7.60862 100.011 10.843V24.9154V30.7712C100.011 33.3312 100.027 33.6789 100.027 35.0844L104.042 35.127H109.777C108.709 34.3904 106.685 32.4495 106.685 29.8895V29.8909Z" fill="#202020"/>
<path d="M43.6521 35.0758C42.8355 34.7086 42.1274 33.7533 41.5512 32.4652C41.5512 32.4652 39.9437 27.855 36.9448 20.25C34.1223 13.0913 32.3829 11.6472 27.8694 11.6472C23.6104 11.6472 22.4203 13.3431 22.4203 13.3431C22.4203 13.3431 24.4357 12.4108 26.2263 13.1426C27.8216 13.794 29.1329 16.4586 29.8303 18.1619C23.0443 18.008 16.3673 23.533 17.8846 30.0666C18.8883 34.3899 23.2583 35.7523 27.2084 35.5153C29.9057 35.3533 32.7672 34.4493 35.1798 32.1034L36.3242 35.0758H43.6521ZM31.5859 32.1101C26.3595 32.5543 24.3886 29.4448 23.879 26.602C23.3034 23.3912 25.2966 19.1395 29.9717 18.5136C30.2315 19.1759 30.3742 19.6242 30.3742 19.6242L34.8863 31.3412C33.7561 31.7766 33.4229 31.9535 31.5859 32.1101Z" fill="#202020"/>
<path opacity="0.92" d="M79.2222 35.1287L75.2061 35.0835C75.2061 33.68 75.1907 33.3316 75.1907 30.771V20.6188C75.1907 17.3844 73.7575 16.2165 72.2793 15.6326V15.5873L81.7303 11.8142H81.8649V29.8893C81.8649 32.4499 83.8871 34.3908 84.9554 35.1287H79.2215H79.2222ZM73.8026 4.35708C73.8026 1.84167 75.818 0 78.3269 0C80.8357 0 82.806 1.84167 82.806 4.35708C82.806 6.8725 80.7455 8.7594 78.3269 8.7594C75.9082 8.7594 73.8026 6.82794 73.8026 4.35708Z" fill="#202020"/>
<path d="M125.516 12.219H133.489V12.2635C131.877 12.8927 130.309 14.5994 129.503 16.6659L120.097 40.1599C119.066 42.6754 117.007 44.7871 113.736 44.7871C111.183 44.7871 109.526 43.5294 109.526 41.3731C109.526 39.2168 110.869 37.8693 112.885 37.8693C116.334 37.8693 116.245 41.7775 118.304 41.7775C118.842 41.7775 119.379 41.3285 120.186 39.3066L121.261 36.6116L113.199 18.1038C111.899 14.914 110.78 13.3424 108.898 12.2642V12.2197H121.261V12.2642C120.141 12.9832 119.604 14.1059 119.604 15.3636C119.604 16.0373 119.828 16.8907 120.141 17.6994L124.709 28.0311L127.263 21.6076C128.293 19.0469 128.651 17.16 128.651 16.2622C128.651 14.0613 127.442 12.7584 125.516 12.2642V12.2197L125.516 12.219Z" fill="#202020"/>
<path d="M11.4812 11.679C11.3123 11.679 11.1447 11.685 10.9777 11.6938C10.9777 11.6938 9.93433 11.7465 9.23291 11.8585H9.22685L9.22281 11.8599C9.22281 11.8599 9.21608 11.8606 9.21339 11.8612C9.20867 11.8639 9.20464 11.8666 9.19925 11.8693L0 15.5871V15.6323C2.32909 16.6207 2.91137 18.193 2.91137 21.4274L2.90666 30.7545C2.90666 33.3145 2.92281 33.6622 2.92281 35.0677L6.93814 35.1103H12.6727C11.6051 34.3737 9.58093 32.4328 9.58093 29.8728L9.42139 12.0921C9.8623 12.003 10.3207 11.9422 11.212 11.9031C13.2254 11.814 14.5265 12.6666 14.5265 14.2842C14.5265 16.0813 12.8248 16.755 12.8248 18.8215C12.8248 20.7084 14.0789 21.9661 16.1394 21.9661C18.1999 21.9661 19.8572 20.6632 19.8572 18.058C19.8572 14.5994 16.7217 11.679 11.4812 11.679Z" fill="#202020"/>
<path opacity="0.92" d="M126.657 31.9891C126.657 29.9598 128.284 28.4739 130.307 28.4739C132.331 28.4739 133.921 29.9598 133.921 31.9891C133.921 34.0185 132.258 35.5408 130.307 35.5408C128.356 35.5408 126.657 33.9827 126.657 31.9891Z" fill="#202020"/>
</g>
</svg>
