<svg width="118" height="39" viewBox="0 0 118 39" fill="none" xmlns="http://www.w3.org/2000/svg">
<g opacity="0.3">
<path d="M51.6016 30.6893V0.908524C51.6016 0.639878 51.8189 0.422363 52.0869 0.422363H55.7626C56.0307 0.422363 56.248 0.639878 56.248 0.908524V31.0278C56.248 33.142 57.1349 33.9025 58.6134 33.9025C60.0919 33.9025 60.9789 33.1412 60.9789 31.0278V0.908524C60.9789 0.639878 61.1962 0.422363 61.4642 0.422363H64.9709C65.2389 0.422363 65.4563 0.639878 65.4563 0.908524V30.6893C65.4563 35.4251 63.0908 38.1311 58.5289 38.1311C53.967 38.1311 51.6016 35.4251 51.6016 30.6893Z" fill="#202020"/>
<path d="M88.3232 8.09511H91.7454C92.0134 8.09511 92.2307 7.87759 92.2307 7.60895V7.44175C92.2307 2.70594 89.8653 0 85.3034 0C80.7415 0 78.376 2.70594 78.376 8.27447V9.56901L78.3744 9.56658V12.6605C78.3744 12.9291 78.1571 13.1466 77.8891 13.1466H77.2138C76.9458 13.1466 76.7285 13.3674 76.7285 13.6401V16.8809C76.7285 17.1536 76.9458 17.3744 77.2138 17.3744H77.8891C78.1571 17.3744 78.3744 17.5919 78.3744 17.8605V27.7371L78.376 27.7396V31.5234C78.376 35.4264 80.7415 38.1324 85.3034 38.1324C89.8653 38.1324 92.2307 35.4264 92.2307 30.6906V13.6174C92.2307 13.3487 92.0134 13.1312 91.7454 13.1312H86.0004C85.7324 13.1312 85.5151 13.3487 85.5151 13.6174V16.8736C85.5151 17.1422 85.7324 17.3598 86.0004 17.3598H87.3525C87.6206 17.3598 87.8379 17.5773 87.8379 17.8459V31.0291C87.8379 33.1433 86.9083 33.9038 85.4306 33.9038C83.9528 33.9038 83.0233 33.1425 83.0233 32.7627V8.87994C83.0233 5.03205 83.952 4.22854 85.4306 4.22854C86.9091 4.22854 87.8379 5.03205 87.8379 7.14551V7.60895C87.8379 7.87759 88.0552 8.09511 88.3232 8.09511Z" fill="#202020"/>
<path d="M42.0658 13.1718H41.3905C41.1225 13.1718 40.9052 12.9543 40.9052 12.6856V11.3262H40.9028V7.44175C40.9028 2.70594 38.4101 0 33.849 0C29.288 0 26.7953 2.70594 26.7953 7.44175V12.684C26.7921 12.9494 26.5764 13.1645 26.31 13.1645H25.6347C25.3667 13.1645 25.1494 13.3852 25.1494 13.658V16.8988C25.1494 17.1715 25.3667 17.3922 25.6347 17.3922H26.31C26.5764 17.3922 26.7921 17.6073 26.7953 17.8727V30.6898C26.7953 35.4256 29.2872 38.1316 33.849 38.1316C38.4109 38.1316 40.9028 35.4256 40.9028 30.6898V29.4959H40.9052V17.8849C40.9052 17.6162 41.1225 17.3987 41.3905 17.3987H42.0658C42.3338 17.3987 42.5511 17.178 42.5511 16.9052V13.6644C42.5511 13.3917 42.3338 13.171 42.0658 13.171V13.1718ZM36.2564 30.9861C36.2564 33.1003 35.3276 33.903 33.849 33.903C32.3705 33.903 31.4417 33.0995 31.4417 30.9861V7.14551C31.4417 5.03205 32.3705 4.22854 33.849 4.22854C35.3276 4.22854 36.2564 5.03205 36.2564 7.14551V30.9861Z" fill="#202020"/>
<path d="M109.485 4.65091H116.539C116.807 4.65091 117.025 4.43339 117.025 4.16475V0.908524C117.025 0.639878 116.807 0.422363 116.539 0.422363H104.838C104.57 0.422363 104.353 0.538425 104.353 1.66901V11.2989V12.6584C104.353 12.927 104.136 13.1445 103.868 13.1445H103.192C102.924 13.1445 102.707 13.3653 102.707 13.638V16.8788C102.707 17.1515 102.924 17.3723 103.192 17.3723H103.868C104.136 17.3723 104.353 17.5898 104.353 17.8584V27.735V36.5849C104.353 37.4899 104.57 37.7074 104.838 37.7074H116.539C116.807 37.7074 117.025 37.4899 117.025 37.2212V33.9642C117.025 33.6956 116.807 33.4781 116.539 33.4781H109.485C109.217 33.4781 108.999 33.2605 108.999 32.9919V17.8617C108.999 17.593 109.217 17.3755 109.485 17.3755H114.892C115.16 17.3755 115.377 17.158 115.377 16.8893V13.6331C115.377 13.3645 115.16 13.147 114.892 13.147H109.485C109.217 13.147 108.999 12.9294 108.999 12.6608V5.13626C108.999 4.86761 109.217 4.6501 109.485 4.6501V4.65091Z" fill="#202020"/>
<path d="M15.7413 37.0772C15.4861 36.1893 15.458 35.277 15.458 34.1156V28.9147C15.458 25.5749 14.6982 15.7429 12.3746 15.0238V14.9394C14.4438 14.0937 15.4153 12.1483 15.4153 9.10468V7.23146C15.4153 2.66528 13.3452 0.423584 8.53061 0.423584H2.13205C1.86403 0.423584 1.64672 0.654896 1.64672 0.886208V11.7481V12.6791C1.64672 12.9477 1.42941 13.1652 1.1614 13.1652H0.485325C0.21731 13.1652 0 13.386 0 13.6587V16.8995C0 17.1722 0.21731 17.393 0.485325 17.393H1.16059C1.42861 17.393 1.64592 17.6105 1.64592 17.8791V18.3352V35.7543C1.64592 37.4919 1.86323 37.7094 2.13124 37.7094H5.807C6.07501 37.7094 6.29232 37.4919 6.29232 37.2233V17.8775C6.29232 17.6088 6.50963 17.3913 6.77765 17.3913H7.89719C10.0091 17.3913 10.8116 25.9125 10.8116 28.6607V34.0726C10.8116 36.1049 10.9323 36.7542 11.1214 37.3645C11.185 37.569 11.3725 37.7094 11.5858 37.7094H15.2785C15.6069 37.7094 15.8314 37.3929 15.7405 37.0772H15.7413ZM10.7697 10.0348C10.7697 12.4023 9.71374 13.1636 7.98251 13.1636H6.77845C6.51044 13.1636 6.29313 12.9461 6.29313 12.6774V5.13748C6.29313 4.86883 6.51044 4.65132 6.77845 4.65132H8.40506C10.0518 4.65132 10.7705 5.58143 10.7705 7.69571V10.034L10.7697 10.0348Z" fill="#202020"/>
</g>
</svg>
