<svg width="69" height="69" viewBox="0 0 69 69" fill="none" xmlns="http://www.w3.org/2000/svg">
<path d="M12.9365 2.87183H56.0615C61.6115 2.87183 66.1268 7.3873 66.127 12.9373V56.0623C66.127 61.6123 61.6116 66.1277 56.0615 66.1277H12.9365C7.38657 66.1276 2.87109 61.6122 2.87109 56.0623V12.9373L2.88379 12.4207C3.145 7.28097 7.28023 3.14573 12.4199 2.88452L12.9365 2.87183ZM12.9365 5.75269C8.9755 5.75279 5.75206 8.97624 5.75195 12.9373V56.0623C5.75195 60.0234 8.97544 63.2467 12.9365 63.2468H56.0615C60.0227 63.2468 63.2461 60.0234 63.2461 56.0623V12.9373C63.246 8.97617 60.0226 5.75269 56.0615 5.75269H47.0293V20.7947C47.0293 21.6873 46.5387 22.5006 45.749 22.9187C44.9592 23.3346 44.0131 23.2822 43.2764 22.781H43.2754L34.7803 17.0134L34.499 16.822L34.2188 17.0134L25.7227 22.783C25.3153 23.0599 24.8458 23.199 24.373 23.199C24.0363 23.1989 23.6996 23.1284 23.3838 22.9851L23.249 22.9187C22.458 22.5009 21.9688 21.6878 21.9688 20.7947V5.75269H12.9365ZM24.8525 19.8884L25.6338 19.3582L33.1465 14.2556C33.9217 13.7321 34.8995 13.7027 35.6934 14.158L35.8486 14.2546L43.3652 19.3601L44.1465 19.8914V5.75269H24.8525V19.8884Z" fill="black" stroke="white"/>
<path d="M15.0928 52.4656H22.4609C23.2564 52.4656 23.9013 53.1106 23.9014 53.906C23.9014 54.7015 23.2564 55.3464 22.4609 55.3464H15.0928C14.2973 55.3463 13.6523 54.7015 13.6523 53.906C13.6524 53.1106 14.2974 52.4657 15.0928 52.4656Z" fill="black" stroke="white"/>
<path d="M15.0928 44.9187H28.9297C29.7251 44.9187 30.37 45.5637 30.3701 46.3591C30.3701 47.1546 29.7252 47.7995 28.9297 47.7996H15.0928C14.2973 47.7995 13.6523 47.1546 13.6523 46.3591C13.6524 45.5638 14.2974 44.9188 15.0928 44.9187Z" fill="black" stroke="white"/>
</svg>
